<svg id="Layer_1" data-name="Layer 1" xmlns="http://www.w3.org/2000/svg" viewBox="0 0 67.43 60"><defs><style>.cls-1{fill:#575756;}.cls-2{fill:#ba9764;}</style></defs><path class="cls-1" d="M18.22,58.18a.92.92,0,0,1-.39-.09.91.91,0,0,1-.52-.82V50.89H11.85a2.74,2.74,0,0,1-2.74-2.74v-20a.91.91,0,0,1,1.82,0v20a.91.91,0,0,0,.92.91h6.37a.91.91,0,0,1,.91.92v5.39l7.64-6.11a.9.9,0,0,1,.57-.2H44.65a.92.92,0,0,1,0,1.83h-17L18.79,58a.9.9,0,0,1-.57.2"/><path class="cls-1" d="M57.41,38.13a.91.91,0,0,1-.91-.91V20.82a.92.92,0,0,0-.92-.91h-20a.92.92,0,1,1,0-1.83h20a2.74,2.74,0,0,1,2.74,2.74v16.4a.91.91,0,0,1-.91.91"/><path class="cls-1" d="M38.27,26.28H31a.91.91,0,0,1,0-1.82h7.29a.91.91,0,1,1,0,1.82"/><path class="cls-1" d="M50.12,33.57H17.31a.91.91,0,0,1,0-1.82H50.12a.91.91,0,0,1,0,1.82"/><path class="cls-1" d="M50.12,39H17.31a.91.91,0,1,1,0-1.82H50.12a.91.91,0,1,1,0,1.82"/><path class="cls-1" d="M44.65,44.51H17.31a.91.91,0,1,1,0-1.82H44.65a.91.91,0,0,1,0,1.82"/><path class="cls-1" d="M57.41,41.78a8.2,8.2,0,1,0,8.2,8.2,8.2,8.2,0,0,0-8.2-8.2m0,18.22a10,10,0,1,1,10-10,10,10,0,0,1-10,10"/><path class="cls-2" d="M60.14,55.44H53.76a.91.91,0,0,1-.91-.91V49.07a.91.91,0,1,1,1.82,0v4.55h5.47a.91.91,0,1,1,0,1.82"/><path class="cls-2" d="M61.05,51.8a.91.91,0,0,1-.91-.91V46.33H54.67a.91.91,0,1,1,0-1.82h6.38a.91.91,0,0,1,.91.91v5.47a.91.91,0,0,1-.91.91"/><path class="cls-2" d="M55.58,50.89a.85.85,0,0,1-.4-.1l-1.42-.71-1.41.71a.91.91,0,1,1-.82-1.63l1.82-.91a.91.91,0,0,1,.82,0l1.82.91a.91.91,0,0,1,.41,1.22.92.92,0,0,1-.82.51"/><path class="cls-2" d="M61.05,51.8a.86.86,0,0,1-.41-.1l-1.82-.91a.91.91,0,1,1,.82-1.63l1.41.71,1.41-.71a.91.91,0,1,1,.82,1.63l-1.82.91a.86.86,0,0,1-.41.1"/><path class="cls-1" d="M2,18.63c3.16,4.18,8.69,6.74,14.62,6.74s11.47-2.56,14.62-6.74c-3.15-4.17-8.69-6.74-14.62-6.74S5.19,14.46,2,18.63M16.65,27.2c-6.76,0-13.08-3.09-16.49-8a.92.92,0,0,1,0-1c3.41-5,9.73-8,16.49-8s13.08,3.08,16.5,8.05a.92.92,0,0,1,0,1c-3.42,5-9.74,8.05-16.5,8.05"/><path class="cls-2" d="M16.65,15.17a3.46,3.46,0,1,0,3.46,3.46,3.47,3.47,0,0,0-3.46-3.46m0,8.75a5.29,5.29,0,1,1,5.29-5.29,5.3,5.3,0,0,1-5.29,5.29"/><path class="cls-2" d="M16.47,6.06a.9.9,0,0,1-.91-.91V.91a.91.91,0,1,1,1.82,0V5.15a.91.91,0,0,1-.91.91"/><path class="cls-2" d="M24.6,8.08a.94.94,0,0,1-.69-.31A.91.91,0,0,1,24,6.48l3.2-2.77A.91.91,0,0,1,28.4,5.09L25.2,7.86a.91.91,0,0,1-.6.22"/><path class="cls-2" d="M8.2,8a.92.92,0,0,1-.58-.21L4.32,5.11A.93.93,0,0,1,4.2,3.82.92.92,0,0,1,5.48,3.7l3.3,2.71A.92.92,0,0,1,8.9,7.7.93.93,0,0,1,8.2,8"/></svg>