<svg id="Layer_1" data-name="Layer 1" xmlns="http://www.w3.org/2000/svg" viewBox="0 0 81.35 60"><defs><style>.cls-1{fill:#ba9764;}.cls-2{fill:#575756;}</style></defs><polygon class="cls-1" points="53.03 10 53.03 11.7 79.65 11.7 79.65 46.37 71.79 46.37 71.79 55.59 63.43 46.37 33.32 46.37 33.32 41.3 31.62 41.3 31.62 48.07 62.68 48.07 73.49 60 73.49 48.07 81.35 48.07 81.35 10 53.03 10"/><path class="cls-2" d="M1.7,1.7H48V36.37H17.93L9.56,45.59V36.37H1.7ZM0,0V38.07H7.86V50L18.68,38.07H49.73V0Z"/><rect class="cls-2" x="54.34" y="19.88" width="17.25" height="1.7"/><rect class="cls-2" x="54.34" y="27.89" width="17.25" height="1.7"/><rect class="cls-2" x="54.34" y="35.89" width="17.25" height="1.7"/><path class="cls-1" d="M24.71,8.44a6.43,6.43,0,0,0-5.66,3.28.91.91,0,0,0-.13.73.94.94,0,0,0,.45.6.92.92,0,0,0,.71.11,1,1,0,0,0,.62-.45,4.54,4.54,0,0,1,4-2.33,4.67,4.67,0,0,1,0,9.33,1,1,0,0,0-.95,1v3.74a1,1,0,0,0,.95.95,1,1,0,0,0,1-.95V21.55a6.59,6.59,0,0,0-1-13.11"/><rect class="cls-1" x="23.36" y="28.79" width="2.57" height="2.57"/></svg>