<svg id="Layer_1" data-name="Layer 1" xmlns="http://www.w3.org/2000/svg" viewBox="0 0 83.28 60"><defs><style>.cls-1{fill:#ba9764;}.cls-2{fill:#575756;}</style></defs><path class="cls-1" d="M74.43,60a.81.81,0,0,1-.6-.26l-9.6-10.59h-31a.79.79,0,0,1-.79-.79V38.12a.79.79,0,0,1,.79-.8.81.81,0,0,1,.81.8v9.44H64.59a.79.79,0,0,1,.59.26l8.45,9.3V48.36a.79.79,0,0,1,.8-.8h7.25V11.85H50.14a.8.8,0,1,1,0-1.59H82.49a.79.79,0,0,1,.79.79V48.36a.79.79,0,0,1-.79.79H75.22V59.2a.8.8,0,0,1-.51.75.92.92,0,0,1-.28,0"/><path class="cls-2" d="M1.6,37.31H8.86a.79.79,0,0,1,.8.79v8.77l8.44-9.3a.81.81,0,0,1,.6-.26H49.26V1.6H1.6ZM8.86,49.75a.67.67,0,0,1-.28-.06A.79.79,0,0,1,8.07,49v-10H.8A.8.8,0,0,1,0,38.1V.8A.8.8,0,0,1,.8,0H50.06a.8.8,0,0,1,.8.8V38.1a.8.8,0,0,1-.8.81h-31L9.46,49.49a.85.85,0,0,1-.6.26"/><path class="cls-1" d="M20.12,31.35a.8.8,0,0,1,0-1.6l15.65,0c.1,0,.41-.38.41-1.05a1.22,1.22,0,0,0-.52-1.1l-.57,0a.82.82,0,0,1-.79-.82.8.8,0,0,1,.79-.79h.5c.2,0,.59-.49.59-1.27s-.41-1.37-.58-1.37l-.55,0a.81.81,0,0,1-.76-.82.79.79,0,0,1,.8-.78h.5c.21,0,.59-.47.59-1.24s-.4-1.34-.56-1.34H35.1a.8.8,0,0,1-.79-.63.83.83,0,0,1,.16-.68.81.81,0,0,1,.62-.32h.5c.24,0,.59-.41.59-1.05s-.35-1-.59-1H29a.79.79,0,0,1-.64-.33.76.76,0,0,1-.12-.7,2.49,2.49,0,0,1,.1-.3A55.45,55.45,0,0,0,29.9,8.29a.24.24,0,0,1,0-.12,2.49,2.49,0,0,0-.35-1.8.56.56,0,0,0-.45-.14.83.83,0,0,0-.58.32,23.82,23.82,0,0,1-2.46,5.67c-.17.31-1.58,3.18-1.74,3.71a.79.79,0,0,1-.79.69h-3.8a.8.8,0,1,1,0-1.6H23c.51-1.3,1.68-3.56,1.7-3.59A22.42,22.42,0,0,0,27,6a2.34,2.34,0,0,1,1.91-1.38,2.15,2.15,0,0,1,1.74.57,3.7,3.7,0,0,1,.83,3,32.94,32.94,0,0,1-1.37,5.54h5.47a2.42,2.42,0,0,1,2.19,2.64,2.93,2.93,0,0,1-.65,1.9,3.54,3.54,0,0,1,.65,2.12,3.25,3.25,0,0,1-.68,2.07,3.61,3.61,0,0,1,.68,2.16,3.37,3.37,0,0,1-.66,2.07,3.08,3.08,0,0,1,.66,1.93c0,1.48-.88,2.65-2,2.65Z"/><path class="cls-1" d="M19.7,33.05H13a.8.8,0,0,1,0-1.6H18.9V14.71l-5.88,0h0a.8.8,0,0,1,0-1.6l6.68,0a.84.84,0,0,1,.57.23.81.81,0,0,1,.23.57V32.25a.8.8,0,0,1-.8.8"/><path class="cls-2" d="M73.35,22H55.66a.79.79,0,0,1-.8-.79.8.8,0,0,1,.8-.81H73.35a.8.8,0,0,1,.8.81.79.79,0,0,1-.8.79"/><path class="cls-2" d="M73.35,30.21H55.66a.81.81,0,0,1,0-1.61H73.35a.81.81,0,0,1,0,1.61"/><path class="cls-2" d="M73.35,38.42H55.66a.8.8,0,0,1,0-1.6H73.35a.8.8,0,1,1,0,1.6"/></svg>