<svg id="Layer_1" data-name="Layer 1" xmlns="http://www.w3.org/2000/svg" viewBox="0 0 80 80"><defs><style>.cls-1{fill:#575756;}.cls-2{fill:#ba9764;}</style></defs><path class="cls-1" d="M40,80A40,40,0,1,1,80,40,40,40,0,0,1,40,80ZM40,1.17A38.83,38.83,0,1,0,78.83,40,38.88,38.88,0,0,0,40,1.17Z"/><path class="cls-1" d="M54.63,44.26a5.42,5.42,0,1,1,0-10.83,5.68,5.68,0,0,1,1.48.2.83.83,0,0,1,.57,1,.82.82,0,0,1-1,.58,3.6,3.6,0,0,0-1-.14,3.75,3.75,0,1,0,3.75,3.75.84.84,0,0,1,.83-.84.85.85,0,0,1,.84.84A5.42,5.42,0,0,1,54.63,44.26Z"/><path class="cls-1" d="M54.69,41.09a.81.81,0,0,1-.56-.21l-1.72-1.57a.82.82,0,0,1-.06-1.17.84.84,0,0,1,1.18-.06l1,1,3.2-4.22a.84.84,0,0,1,1.33,1l-3.75,4.94a.81.81,0,0,1-.59.33Z"/><path class="cls-1" d="M54.17,23.33H25.83A.83.83,0,0,1,25,22.5V19.17A4.17,4.17,0,0,1,29.17,15H50.83A4.17,4.17,0,0,1,55,19.17V22.5h0A.83.83,0,0,1,54.17,23.33Zm-27.5-1.66H53.33v-2.5a2.5,2.5,0,0,0-2.5-2.5H29.17a2.5,2.5,0,0,0-2.5,2.5Z"/><path class="cls-1" d="M50.83,65H29.17A4.17,4.17,0,0,1,25,60.83V22.5a.83.83,0,0,1,.83-.83.84.84,0,0,1,.84.83V60.83a2.5,2.5,0,0,0,2.5,2.5H50.83a2.5,2.5,0,0,0,2.5-2.5v-10a.84.84,0,0,1,.84-.83.83.83,0,0,1,.83.83v10A4.17,4.17,0,0,1,50.83,65Z"/><path class="cls-1" d="M54.17,58.33H25.83a.83.83,0,0,1,0-1.66H54.17a.83.83,0,0,1,0,1.66Z"/><path class="cls-1" d="M41.67,61.67H38.33a.84.84,0,0,1-.83-.84.83.83,0,0,1,.83-.83h3.34a.83.83,0,0,1,.83.83A.84.84,0,0,1,41.67,61.67Z"/><path class="cls-1" d="M36.67,53.33a.82.82,0,0,1-.84-.83V48.33h-2.5a2.5,2.5,0,0,1-2.5-2.5v-15a2.5,2.5,0,0,1,2.5-2.5H62.5a2.5,2.5,0,0,1,2.5,2.5v15a2.5,2.5,0,0,1-2.5,2.5H42.81l-5.6,4.8A.86.86,0,0,1,36.67,53.33ZM33.33,30a.83.83,0,0,0-.83.83v15a.84.84,0,0,0,.83.84h3.34a.83.83,0,0,1,.83.83v3.19L42,46.87a.82.82,0,0,1,.54-.2h20a.84.84,0,0,0,.83-.84v-15A.83.83,0,0,0,62.5,30Z"/><path class="cls-1" d="M54.17,26.67a.85.85,0,0,1-.84-.84V22.5a.84.84,0,0,1,.84-.83.83.83,0,0,1,.83.83v3.33A.84.84,0,0,1,54.17,26.67Z"/><path class="cls-2" d="M41.35,44.26a5.42,5.42,0,1,1,5.42-5.41A5.42,5.42,0,0,1,41.35,44.26Zm0-9.16a3.75,3.75,0,1,0,3.75,3.75A3.76,3.76,0,0,0,41.35,35.1Z"/><path class="cls-2" d="M42.5,40.69a.84.84,0,0,1-.59-.24l-2.36-2.36a.83.83,0,0,1,1.18-1.18l2.36,2.36a.83.83,0,0,1-.59,1.42Z"/><path class="cls-2" d="M40.14,40.69a.86.86,0,0,1-.59-.24.85.85,0,0,1,0-1.18l2.36-2.36a.83.83,0,0,1,1.18,1.18l-2.36,2.36A.82.82,0,0,1,40.14,40.69Z"/><path class="cls-1" d="M54.63,44.26a5.42,5.42,0,1,1,0-10.83,5.68,5.68,0,0,1,1.48.2.83.83,0,0,1,.57,1,.82.82,0,0,1-1,.58,3.6,3.6,0,0,0-1-.14,3.75,3.75,0,1,0,3.75,3.75.84.84,0,0,1,.83-.84.85.85,0,0,1,.84.84A5.42,5.42,0,0,1,54.63,44.26Z"/><path class="cls-1" d="M54.69,41.09a.81.81,0,0,1-.56-.21l-1.72-1.57a.82.82,0,0,1-.06-1.17.84.84,0,0,1,1.18-.06l1,1,3.2-4.22a.84.84,0,0,1,1.33,1l-3.75,4.94a.81.81,0,0,1-.59.33Z"/><path class="cls-1" d="M54.17,23.33H25.83A.83.83,0,0,1,25,22.5V19.17A4.17,4.17,0,0,1,29.17,15H50.83A4.17,4.17,0,0,1,55,19.17V22.5h0A.83.83,0,0,1,54.17,23.33Zm-27.5-1.66H53.33v-2.5a2.5,2.5,0,0,0-2.5-2.5H29.17a2.5,2.5,0,0,0-2.5,2.5Z"/><path class="cls-1" d="M50.83,65H29.17A4.17,4.17,0,0,1,25,60.83V22.5a.83.83,0,0,1,.83-.83.84.84,0,0,1,.84.83V60.83a2.5,2.5,0,0,0,2.5,2.5H50.83a2.5,2.5,0,0,0,2.5-2.5v-10a.84.84,0,0,1,.84-.83.83.83,0,0,1,.83.83v10A4.17,4.17,0,0,1,50.83,65Z"/><path class="cls-1" d="M54.17,58.33H25.83a.83.83,0,0,1,0-1.66H54.17a.83.83,0,0,1,0,1.66Z"/><path class="cls-1" d="M41.67,61.67H38.33a.84.84,0,0,1-.83-.84.83.83,0,0,1,.83-.83h3.34a.83.83,0,0,1,.83.83A.84.84,0,0,1,41.67,61.67Z"/><path class="cls-1" d="M36.67,53.33a.82.82,0,0,1-.84-.83V48.33h-2.5a2.5,2.5,0,0,1-2.5-2.5v-15a2.5,2.5,0,0,1,2.5-2.5H62.5a2.5,2.5,0,0,1,2.5,2.5v15a2.5,2.5,0,0,1-2.5,2.5H42.81l-5.6,4.8A.86.86,0,0,1,36.67,53.33ZM33.33,30a.83.83,0,0,0-.83.83v15a.84.84,0,0,0,.83.84h3.34a.83.83,0,0,1,.83.83v3.19L42,46.87a.82.82,0,0,1,.54-.2h20a.84.84,0,0,0,.83-.84v-15A.83.83,0,0,0,62.5,30Z"/><path class="cls-1" d="M54.17,26.67a.85.85,0,0,1-.84-.84V22.5a.84.84,0,0,1,.84-.83.83.83,0,0,1,.83.83v3.33A.84.84,0,0,1,54.17,26.67Z"/><path class="cls-2" d="M41.35,44.26a5.42,5.42,0,1,1,5.42-5.41A5.42,5.42,0,0,1,41.35,44.26Zm0-9.16a3.75,3.75,0,1,0,3.75,3.75A3.76,3.76,0,0,0,41.35,35.1Z"/><path class="cls-2" d="M42.5,40.69a.84.84,0,0,1-.59-.24l-2.36-2.36a.83.83,0,0,1,1.18-1.18l2.36,2.36a.83.83,0,0,1-.59,1.42Z"/><path class="cls-2" d="M40.14,40.69a.86.86,0,0,1-.59-.24.85.85,0,0,1,0-1.18l2.36-2.36a.83.83,0,0,1,1.18,1.18l-2.36,2.36A.82.82,0,0,1,40.14,40.69Z"/></svg>