<svg id="Layer_1" data-name="Layer 1" xmlns="http://www.w3.org/2000/svg" viewBox="0 0 57.1 60"><defs><style>.cls-1{fill:#575756;}.cls-2{fill:#ba9764;}</style></defs><path class="cls-1" d="M.91,21.82a.77.77,0,0,1-.29-.05.9.9,0,0,1-.57-1.14,30,30,0,0,1,51-10.47.91.91,0,1,1-1.36,1.2A28.2,28.2,0,0,0,1.77,21.19a.9.9,0,0,1-.86.63"/><path class="cls-2" d="M56.19,21.82a.91.91,0,0,1-.86-.63A27.78,27.78,0,0,0,53,15.91.91.91,0,1,1,54.54,15a31.13,31.13,0,0,1,2.52,5.62.92.92,0,0,1-.58,1.15,1,1,0,0,1-.29.05"/><path class="cls-1" d="M28.55,60A30,30,0,0,1,5.91,49.69.93.93,0,0,1,6,48.4a.94.94,0,0,1,1.29.09,28.19,28.19,0,0,0,48-9.68.91.91,0,0,1,1.73.56A30,30,0,0,1,28.55,60"/><path class="cls-2" d="M3.33,45.42A.93.93,0,0,1,2.54,45,29.42,29.42,0,0,1,.05,39.37a.9.9,0,0,1,.58-1.14.9.9,0,0,1,1.14.58,28.27,28.27,0,0,0,2.35,5.24.92.92,0,0,1-.33,1.25,1,1,0,0,1-.46.12"/><path class="cls-2" d="M39,36.67h0Zm-17.28,3a.88.88,0,0,1,.49.15,11.41,11.41,0,0,0,3.69,1.53.91.91,0,0,1,.71.88v2.9a1.25,1.25,0,0,0,1.25,1.26H29a1.26,1.26,0,0,0,1.26-1.26V42.2a.91.91,0,0,1,.71-.88,11.59,11.59,0,0,0,3.69-1.53.91.91,0,0,1,1.13.12l2.13,2.14a1.3,1.3,0,0,0,1.78,0l.76-.77a1.26,1.26,0,0,0,0-1.79l-2.1-2.12a.9.9,0,0,1-.05-1.23,11.2,11.2,0,0,0,1.41-3.46l0-.21a.9.9,0,0,1,.9-.76h3a1.26,1.26,0,0,0,1.26-1.27V29.35a1.26,1.26,0,0,0-1.26-1.26h-3a.9.9,0,0,1-.88-.71,11.53,11.53,0,0,0-1.51-3.6.91.91,0,0,1,.12-1.13l2.13-2.13a1.27,1.27,0,0,0,0-1.8L39.64,18a1.27,1.27,0,0,0-1.77,0l-2.13,2.13a.91.91,0,0,1-1.13.12,11.82,11.82,0,0,0-3.69-1.53.91.91,0,0,1-.71-.88V14.9A1.27,1.27,0,0,0,29,13.64H27.86a1.26,1.26,0,0,0-1.25,1.26v2.9a.91.91,0,0,1-.71.88,11.63,11.63,0,0,0-3.69,1.53.92.92,0,0,1-1.14-.12L19,18a1.28,1.28,0,0,0-1.78,0l-.77.76a1.29,1.29,0,0,0,0,1.8l2.13,2.13a.91.91,0,0,1,.12,1.13,11.53,11.53,0,0,0-1.52,3.7.92.92,0,0,1-.89.71H13.35a1.27,1.27,0,0,0-1.26,1.27v1.08a1.27,1.27,0,0,0,1.26,1.27h2.89a.91.91,0,0,1,.89.71,11.44,11.44,0,0,0,1.52,3.7.91.91,0,0,1-.12,1.13L16.4,39.49a1.27,1.27,0,0,0,0,1.79l.77.77a1.3,1.3,0,0,0,1.78,0l2.12-2.14a1,1,0,0,1,.65-.27M29,48.18H27.86a3.08,3.08,0,0,1-3.07-3.08V42.91a12.93,12.93,0,0,1-2.93-1.21l-1.62,1.63a3.15,3.15,0,0,1-4.36,0l-.77-.77a3.09,3.09,0,0,1,0-4.36l1.63-1.63a13.69,13.69,0,0,1-1.21-2.94H13.35a3.09,3.09,0,0,1-3.07-3.09V29.46a3.09,3.09,0,0,1,3.07-3.09h2.18a13.48,13.48,0,0,1,1.21-2.94L15.11,21.8a3.09,3.09,0,0,1,0-4.36l.77-.77a3.17,3.17,0,0,1,4.36,0l1.62,1.63a12.93,12.93,0,0,1,2.93-1.21V14.9a3.08,3.08,0,0,1,3.07-3.08H29A3.08,3.08,0,0,1,32,14.9v2.19A12.86,12.86,0,0,1,35,18.3l1.63-1.63a3.15,3.15,0,0,1,4.35,0l.77.77a3.09,3.09,0,0,1,0,4.36l-1.63,1.63a13.34,13.34,0,0,1,1.19,2.84h2.3a3.09,3.09,0,0,1,3.08,3.08v1.09a3.09,3.09,0,0,1-3.08,3.09H41.33a14,14,0,0,1-1.22,3.07l1.59,1.6a3.09,3.09,0,0,1,0,4.36l-.77.77a3.13,3.13,0,0,1-4.35,0L35,41.7A12.86,12.86,0,0,1,32,42.91V45.1A3.08,3.08,0,0,1,29,48.18"/><path class="cls-2" d="M30.22,8.25h-.07a22.59,22.59,0,0,0-3.49,0,.91.91,0,1,1-.15-1.81,23.85,23.85,0,0,1,3.78,0,.91.91,0,0,1-.07,1.81"/><path class="cls-1" d="M12,46.68a.88.88,0,0,1-.65-.28,23.63,23.63,0,0,1-.32-32.47.92.92,0,0,1,1.29,0,.9.9,0,0,1,.05,1.28,21.82,21.82,0,0,0,.29,30,.91.91,0,0,1,0,1.29.88.88,0,0,1-.63.25"/><path class="cls-2" d="M28.4,53.64c-.63,0-1.26,0-1.88-.08a.91.91,0,1,1,.14-1.81,22.59,22.59,0,0,0,3.49,0,.91.91,0,1,1,.14,1.81c-.62,0-1.25.08-1.89.08"/><path class="cls-1" d="M44.77,46.68a.88.88,0,0,1-.63-.25.91.91,0,0,1,0-1.29,21.81,21.81,0,0,0,0-30.28.91.91,0,1,1,1.31-1.26,23.62,23.62,0,0,1,0,32.8.88.88,0,0,1-.65.28"/><path class="cls-1" d="M28.4,37.27a7.27,7.27,0,1,1,0-14.54,7.14,7.14,0,0,1,2.39.4.91.91,0,0,1-.59,1.72A5.46,5.46,0,1,0,33.86,30a.91.91,0,0,1,1.82,0,7.29,7.29,0,0,1-7.28,7.27"/><path class="cls-2" d="M28.4,33.46a.91.91,0,0,1-.7-.34l-2.79-3.47a.91.91,0,1,1,1.42-1.14l2.05,2.55,5.88-7.85A.9.9,0,0,1,35.53,23a.92.92,0,0,1,.19,1.28l-6.59,8.79a.91.91,0,0,1-.71.37Z"/></svg>