<svg id="Layer_1" data-name="Layer 1" xmlns="http://www.w3.org/2000/svg" viewBox="0 0 80 80"><defs><style>.cls-1{fill:#575756;}.cls-2{fill:#ba9764;}</style></defs><path class="cls-1" d="M40,80A40,40,0,1,1,80,40,40,40,0,0,1,40,80ZM40,1.17A38.83,38.83,0,1,0,78.83,40,38.88,38.88,0,0,0,40,1.17Z"/><path class="cls-2" d="M51.25,50.3h11.2a.7.7,0,0,0,.7-.7V45.4a.7.7,0,0,0-.7-.7H51.25a.7.7,0,0,0-.7.7v4.2A.7.7,0,0,0,51.25,50.3Zm10.5-1.4H52V46.1h9.8Z"/><path class="cls-2" d="M34.45,50.3h11.2a.7.7,0,0,0,.7-.7V45.4a.7.7,0,0,0-.7-.7H34.45a.7.7,0,0,0-.7.7v4.2A.7.7,0,0,0,34.45,50.3ZM45,48.9h-9.8V46.1H45Z"/><path class="cls-2" d="M17.65,50.3h11.2a.7.7,0,0,0,.7-.7V45.4a.7.7,0,0,0-.7-.7H17.65a.7.7,0,0,0-.7.7v4.2A.7.7,0,0,0,17.65,50.3Zm10.5-1.4h-9.8V46.1h9.8Z"/><path class="cls-1" d="M51.25,53.8h11.2a.7.7,0,1,0,0-1.4H51.25a.7.7,0,1,0,0,1.4Z"/><path class="cls-1" d="M51.25,57.3h11.2a.7.7,0,1,0,0-1.4H51.25a.7.7,0,1,0,0,1.4Z"/><path class="cls-1" d="M34.45,53.8h11.2a.7.7,0,0,0,0-1.4H34.45a.7.7,0,1,0,0,1.4Z"/><path class="cls-1" d="M34.45,57.3h11.2a.7.7,0,0,0,0-1.4H34.45a.7.7,0,1,0,0,1.4Z"/><path class="cls-1" d="M17.55,53.8h11.2a.7.7,0,0,0,0-1.4H17.55a.7.7,0,0,0,0,1.4Z"/><path class="cls-1" d="M17.55,57.3h11.2a.7.7,0,0,0,0-1.4H17.55a.7.7,0,0,0,0,1.4Z"/><path class="cls-1" d="M56.85,40.5h5.6a.7.7,0,0,0,.7-.7,23,23,0,0,0-6-15.56.7.7,0,1,0-1,.94A21.64,21.64,0,0,1,61.74,39.1h-4.2a17.4,17.4,0,0,0-3.45-9.75L53.85,29a.7.7,0,1,0-1.1.87c.07.09.15.18.22.28a16,16,0,0,1,3.18,9.61A.7.7,0,0,0,56.85,40.5Z"/><path class="cls-1" d="M31.21,26.22a.75.75,0,0,0,.37-.11A16.11,16.11,0,0,1,45,24.49a.7.7,0,0,0,.44-1.33,17.52,17.52,0,0,0-5.43-.86h0a17.46,17.46,0,0,0-8.73,2.34l-3.06-3.06a21.73,21.73,0,0,1,21.05-1.41.7.7,0,1,0,.6-1.26,23.07,23.07,0,0,0-23.14,2,.7.7,0,0,0-.3.51.71.71,0,0,0,.21.55l4,4A.7.7,0,0,0,31.21,26.22Z"/><path class="cls-1" d="M17.65,40.5h5.6a.7.7,0,0,0,.7-.7A16.13,16.13,0,0,1,29.4,27.73a.7.7,0,0,0,.24-.5.72.72,0,0,0-.21-.52l-4-4a.7.7,0,0,0-1,0A23.15,23.15,0,0,0,17,39.8.7.7,0,0,0,17.65,40.5Zm4.91-1.4h-4.2A21.79,21.79,0,0,1,25,24.21l3,3A17.53,17.53,0,0,0,22.56,39.1Z"/><path class="cls-1" d="M39.4,42.12a2.82,2.82,0,0,0,2.2-1c.55-.74,13.26-17.62,14.3-20.81l.32-1a.7.7,0,0,0-1-.82l-.87.52c-2.88,1.73-16.51,17.88-17.09,18.57a2.8,2.8,0,0,0-.61,2.07,2.83,2.83,0,0,0,1,1.88h0A2.78,2.78,0,0,0,39.4,42.12ZM38.1,41h0ZM54,21c-2.31,4.1-10.26,14.88-13.49,19.17a1.39,1.39,0,0,1-2,.2,1.38,1.38,0,0,1-.22-2C41.76,34.35,50.5,24.21,54,21Z"/></svg>