<svg id="Layer_1" data-name="Layer 1" xmlns="http://www.w3.org/2000/svg" viewBox="0 0 80 80"><defs><style>.cls-1{fill:#575756;}.cls-2{fill:#ba9764;}</style></defs><path class="cls-1" d="M40,80A40,40,0,1,1,80,40,40,40,0,0,1,40,80ZM40,1.17A38.83,38.83,0,1,0,78.83,40,38.88,38.88,0,0,0,40,1.17Z"/><path class="cls-2" d="M44.67,64a2.78,2.78,0,0,1-2-.82,2.73,2.73,0,0,1-.82-2,2.78,2.78,0,0,1,.82-2l1-.92a.7.7,0,0,1,1,0,.71.71,0,0,1,0,1l-.95.91a1.38,1.38,0,0,0-.4,1,1.4,1.4,0,0,0,1.41,1.4,1.24,1.24,0,0,0,.89-.41l5.65-5.3a.71.71,0,0,1,.48-.19H56.1a.7.7,0,1,1,0,1.4H52l-5.4,5.07a2.58,2.58,0,0,1-1.85.83Z"/><path class="cls-2" d="M19,44.75a.7.7,0,0,1,0-1.4H61a.7.7,0,0,1,0,1.4Z"/><path class="cls-2" d="M30.87,60.14a2.84,2.84,0,0,1-2-.82,2.82,2.82,0,0,1,0-4l7.54-7.5a.69.69,0,0,1,1,0,.71.71,0,0,1,0,1l-7.54,7.51a1.35,1.35,0,0,0-.41,1,1.42,1.42,0,0,0,.4,1,1.45,1.45,0,0,0,2,0l5.87-5.87a.69.69,0,0,1,1,0,.71.71,0,0,1,0,1l-5.87,5.87A2.82,2.82,0,0,1,30.87,60.14Z"/><path class="cls-2" d="M36.17,60.85a2.82,2.82,0,0,1-2-.93,2.76,2.76,0,0,1-.82-2,2.79,2.79,0,0,1,.82-2l3.71-3.68a.71.71,0,0,1,1,0,.7.7,0,0,1,0,1L35.19,57a1.4,1.4,0,0,0,0,2,1.54,1.54,0,0,0,1,.51,1.26,1.26,0,0,0,.89-.52l3.67-3.67a.71.71,0,0,1,1,0,.69.69,0,0,1,0,1L38.1,59.9a2.59,2.59,0,0,1-1.87,1Z"/><path class="cls-2" d="M40.24,62.49a2.8,2.8,0,0,1-2.78-2.8,2.8,2.8,0,0,1,.83-2l2.48-2.44a.7.7,0,1,1,1,1l-2.48,2.45a1.39,1.39,0,0,0-.41,1,1.43,1.43,0,0,0,.41,1,1.38,1.38,0,0,0,1,.4,1.19,1.19,0,0,0,.89-.41l2.47-2.46a.7.7,0,0,1,1,1l-2.44,2.44a2.6,2.6,0,0,1-1.87.84Z"/><path class="cls-2" d="M45.23,53.49a2.78,2.78,0,0,1-2-.82L39.53,49H37a.7.7,0,0,1,0-1.4h2.79a.69.69,0,0,1,.5.21l3.92,3.92a1.43,1.43,0,0,0,2,0,1.41,1.41,0,0,0,0-2l-5.15-5.15a.69.69,0,0,1,0-1,.68.68,0,0,1,1,0l5.16,5.15a2.81,2.81,0,0,1,0,4A2.78,2.78,0,0,1,45.23,53.49Z"/><path class="cls-2" d="M28.8,58.05H24.16a.7.7,0,0,1,0-1.4H28.8a.7.7,0,0,1,0,1.4Z"/><path class="cls-1" d="M34.4,42a.7.7,0,0,1-.7-.7v-2.1a.7.7,0,1,1,0-1.4h.7a.7.7,0,0,1,.7.7v2.8A.7.7,0,0,1,34.4,42Z"/><path class="cls-1" d="M45.6,42a.7.7,0,0,1-.7-.7v-2.8a.7.7,0,0,1,.7-.7h.7a.7.7,0,0,1,0,1.4v2.1A.7.7,0,0,1,45.6,42Z"/><path class="cls-1" d="M49.8,42a.7.7,0,0,1-.7-.7v-3.5c0-4.46-2.94-7.7-7-7.7H37.9c-4.06,0-7,3.24-7,7.7v3.5a.7.7,0,0,1-1.4,0v-3.5c0-5.19,3.61-9.1,8.4-9.1h4.2c4.79,0,8.4,3.91,8.4,9.1v3.5A.7.7,0,0,1,49.8,42Z"/><path class="cls-1" d="M40,27.25c-2.93,0-4.9-2.25-4.9-5.6s2-5.6,4.9-5.6,4.9,2.25,4.9,5.6S42.93,27.25,40,27.25Zm0-9.8c-2.58,0-3.5,2.26-3.5,4.2s.92,4.2,3.5,4.2,3.5-2.26,3.5-4.2S42.58,17.45,40,17.45Z"/><path class="cls-1" d="M59.6,42a.7.7,0,0,1-.7-.7v-3a6.16,6.16,0,0,0-6.21-6.09H51.9a.7.7,0,1,1,0-1.4h.79a7.56,7.56,0,0,1,7.61,7.49v3A.7.7,0,0,1,59.6,42Z"/><path class="cls-1" d="M56.1,42a.7.7,0,0,1-.7-.7v-1.4a.7.7,0,0,1,.7-.7h.7a.7.7,0,0,1,0,1.4v.7A.7.7,0,0,1,56.1,42Z"/><path class="cls-1" d="M51.18,29.35c-2.51,0-4.2-2-4.2-4.9s1.69-4.9,4.2-4.9,4.2,2,4.2,4.9S53.7,29.35,51.18,29.35Zm0-8.4c-2.06,0-2.8,1.81-2.8,3.5s.74,3.5,2.8,3.5,2.8-1.81,2.8-3.5S53.25,21,51.18,21Z"/><path class="cls-1" d="M20.4,42a.7.7,0,0,1-.7-.7v-3a7.56,7.56,0,0,1,7.61-7.49h.79a.7.7,0,1,1,0,1.4h-.79a6.16,6.16,0,0,0-6.21,6.09v3A.7.7,0,0,1,20.4,42Z"/><path class="cls-1" d="M23.9,42a.7.7,0,0,1-.7-.7v-.7a.7.7,0,1,1,0-1.4h.7a.7.7,0,0,1,.7.7v1.4A.7.7,0,0,1,23.9,42Z"/><path class="cls-1" d="M28.82,29.35c-2.52,0-4.2-2-4.2-4.9s1.68-4.9,4.2-4.9,4.2,2,4.2,4.9S31.33,29.35,28.82,29.35Zm0-8.4c-2.07,0-2.8,1.81-2.8,3.5s.73,3.5,2.8,3.5,2.8-1.81,2.8-3.5S30.88,21,28.82,21Z"/></svg>