<svg id="Layer_1" data-name="Layer 1" xmlns="http://www.w3.org/2000/svg" viewBox="0 0 45.17 59.63"><defs><style>.cls-1{fill:#575756;}.cls-2{fill:#ba9764;}</style></defs><path class="cls-1" d="M1.81,57.82H43.37v-56H1.81Zm42.46,1.81H.9a.9.9,0,0,1-.9-.91V.91A.9.9,0,0,1,.9,0H44.27a.9.9,0,0,1,.9.91V58.72a.9.9,0,0,1-.9.91"/><rect class="cls-1" x="7.22" y="6.33" width="30.72" height="1.8"/><rect class="cls-1" x="7.22" y="12.65" width="30.72" height="1.8"/><rect class="cls-1" x="7.22" y="18.98" width="30.72" height="1.8"/><path class="cls-2" d="M8.13,53.3h5.42V39.86a.11.11,0,0,0-.1-.11H8.24a.11.11,0,0,0-.11.11Zm6.32,1.81H7.23a.9.9,0,0,1-.91-.9V39.86a1.92,1.92,0,0,1,1.92-1.92h5.21a1.92,1.92,0,0,1,1.91,1.92V54.21a.9.9,0,0,1-.91.9"/><path class="cls-2" d="M31.62,53.3H37V36.24a.11.11,0,0,0-.1-.1H31.73a.11.11,0,0,0-.11.1Zm6.32,1.81H30.72a.9.9,0,0,1-.91-.9v-18a1.92,1.92,0,0,1,1.92-1.91h5.21a1.92,1.92,0,0,1,1.91,1.91v18a.9.9,0,0,1-.91.9"/><path class="cls-2" d="M19.87,53.3h5.42v-8a.1.1,0,0,0-.1-.11H20a.11.11,0,0,0-.11.11Zm6.33,1.81H19a.9.9,0,0,1-.9-.9V45.28A1.91,1.91,0,0,1,20,43.37h5.21a1.91,1.91,0,0,1,1.91,1.91v8.93a.9.9,0,0,1-.9.9"/><path class="cls-2" d="M22.58,36.14a.93.93,0,0,1-.58-.22l-5.93-5.08L8.71,33.49a.91.91,0,0,1-1.16-.55.9.9,0,0,1,.55-1.15L16,29a.92.92,0,0,1,.9.16l5.78,5,12.08-8.62a.9.9,0,0,1,1.26.21.91.91,0,0,1-.21,1.26L23.11,36a.93.93,0,0,1-.53.17"/></svg>