<svg id="Layer_1" data-name="Layer 1" xmlns="http://www.w3.org/2000/svg" viewBox="0 0 60.82 60"><defs><style>.cls-1{fill:#ba9764;}.cls-2{fill:#575756;}</style></defs><polygon class="cls-1" points="0 28.77 0 40.27 17.26 40.27 17.26 38.63 1.64 38.63 1.64 30.41 17.26 30.41 17.26 28.77 0 28.77"/><polygon class="cls-1" points="60.82 40.27 29.59 40.27 29.59 38.63 59.18 38.63 59.18 30.41 23.01 30.41 23.01 28.77 60.82 28.77 60.82 40.27"/><rect class="cls-1" x="9.86" y="29.58" width="1.64" height="4.94"/><rect class="cls-1" x="24.66" y="29.59" width="1.64" height="3.29"/><rect class="cls-1" x="29.59" y="29.58" width="1.64" height="4.94"/><rect class="cls-1" x="34.52" y="29.59" width="1.65" height="3.29"/><rect class="cls-1" x="39.46" y="29.58" width="1.64" height="4.94"/><rect class="cls-1" x="44.38" y="29.59" width="1.64" height="3.29"/><rect class="cls-1" x="49.32" y="29.58" width="1.65" height="4.94"/><rect class="cls-1" x="54.25" y="29.59" width="1.64" height="3.29"/><path class="cls-2" d="M23.84,60H22.19V51.74a11.12,11.12,0,0,1-5.75-9.82V27.53a3.7,3.7,0,1,1,7.4,0v7a8.24,8.24,0,0,1,7.39,8.18H29.59A6.58,6.58,0,0,0,23,36.17h-.82V27.53a2.06,2.06,0,0,0-4.11,0V41.92a9.4,9.4,0,0,0,5.31,8.6l.45.23Z"/><path class="cls-2" d="M40.27,60H38.63V49.18l.27-.24a9.35,9.35,0,0,0,3-7V40.27h1.64v1.65a11,11,0,0,1-3.29,8Z"/><path class="cls-2" d="M33.7,26.3H32.06v-14a1.65,1.65,0,1,0-3.29,0v14H27.12v-14a3.29,3.29,0,0,1,6.58,0Z"/><path class="cls-2" d="M38.63,27.94H37V16.44a1.65,1.65,0,0,0-3.29,0v11.5H32.06V16.44a3.29,3.29,0,1,1,6.57,0Z"/><path class="cls-2" d="M23.84,30.41H22.19v-14a3.29,3.29,0,0,1,6.58,0V28H27.12V16.44a1.64,1.64,0,1,0-3.28,0Z"/><path class="cls-1" d="M30.41,6.57a.82.82,0,0,1-.82-.82V.82a.82.82,0,0,1,1.64,0V5.75a.82.82,0,0,1-.82.82"/><path class="cls-1" d="M13.93,14.75a.82.82,0,0,1-.58-.24L9.28,10.44a.82.82,0,0,1,1.16-1.16l4.07,4.07a.8.8,0,0,1,0,1.16.82.82,0,0,1-.58.24"/><path class="cls-1" d="M46.89,14.79a.78.78,0,0,1-.58-.24.82.82,0,0,1,0-1.16l4.07-4.07a.82.82,0,0,1,1.16,1.16l-4.07,4.07a.78.78,0,0,1-.58.24"/></svg>