<svg id="Layer_1" data-name="Layer 1" xmlns="http://www.w3.org/2000/svg" viewBox="0 0 73.14 60"><defs><style>.cls-1{fill:#575756;}.cls-2{fill:#ba9764;}</style></defs><path class="cls-1" d="M61.28,50a1,1,0,0,1-.65-.24,1,1,0,0,1-.34-.75V9.49a1,1,0,0,1,.86-1c7.9-1.06,9.63-2.27,10-2.59C69.76,4.27,57,2,36.57,2S3.38,4.27,2,5.92c.33.32,2.06,1.53,10,2.59a1,1,0,0,1,.86,1V49a1,1,0,0,1-.34.75,1,1,0,0,1-.78.23C0,48.43,0,46.35,0,45.47,0,43.89,2.08,43,3.65,42.55a1,1,0,0,1,.6,1.88,5.72,5.72,0,0,0-2.21,1c.34.32,2,1.41,8.83,2.42V10.35C0,8.79,0,6.8,0,5.93,0,.07,35.08,0,36.57,0S73.14.07,73.14,5.93c0,.87,0,2.86-10.87,4.42V47.89c6.87-1,8.49-2.1,8.83-2.42a5.72,5.72,0,0,0-2.21-1,1,1,0,1,1,.59-1.89c1.57.5,3.66,1.35,3.66,2.93,0,.88,0,3-11.73,4.53h-.13"/><path class="cls-1" d="M64.24,43.35l-.16,0a155,155,0,0,0-19.95-1.71,1,1,0,0,1,.06-2,157.49,157.49,0,0,1,20.22,1.73,1,1,0,0,1,.81,1.15,1,1,0,0,1-1,.82"/><path class="cls-1" d="M8.89,43.35a1,1,0,0,1-1-.82,1,1,0,0,1,.81-1.15,151.92,151.92,0,0,1,19.17-1.7,1,1,0,0,1,.07,2A151.7,151.7,0,0,0,9.06,43.33l-.17,0"/><path class="cls-1" d="M72.15,46.45a1,1,0,0,1-1-1V5.93a1,1,0,0,1,2,0V45.47a1,1,0,0,1-1,1"/><path class="cls-1" d="M1,47a1,1,0,0,1-1-1V6.42a1,1,0,0,1,2,0V46a1,1,0,0,1-1,1"/><path class="cls-2" d="M16.53,29.22a1,1,0,0,1-.73-1.65l4.07-4.47A1,1,0,0,1,21.2,23l.86.65.88.76a1,1,0,0,1-1.29,1.5l-.93-.79L17.26,28.9a1,1,0,0,1-.73.32"/><path class="cls-2" d="M31.05,32.78a.92.92,0,0,1-.59-.2l-5.92-4.46a1,1,0,1,1,1.19-1.58l5.14,3.88L36,23.9a1,1,0,0,1,.67-.38,1,1,0,0,1,.73.22l4.85,4,1.95-2.85a1,1,0,0,1,1.37-.26A1,1,0,0,1,45.78,26L43.23,29.7a1,1,0,0,1-1.44.21l-4.9-4L31.83,32.4a1,1,0,0,1-.78.38"/><path class="cls-2" d="M47.36,22.88a1,1,0,0,1-.56-.17,1,1,0,0,1-.26-1.38l6.85-10A1,1,0,0,1,55,12.4l-6.86,10a1,1,0,0,1-.81.43"/><path class="cls-2" d="M55.43,15.59a1,1,0,0,1-1-.77l-.58-2.5-2.51.58a1,1,0,0,1-1.19-.74A1,1,0,0,1,50.93,11l3.47-.8a1,1,0,0,1,1.19.73l.81,3.47a1,1,0,0,1-.74,1.19.91.91,0,0,1-.23,0"/><path class="cls-1" d="M36.78,16.51a10.88,10.88,0,0,0-.05,21.75h.05a10.88,10.88,0,0,0,0-21.75Zm0,23.72h-.06a12.85,12.85,0,1,1,.12-25.69A12.85,12.85,0,0,1,49.63,27.45,12.86,12.86,0,0,1,36.78,40.23"/><rect class="cls-1" x="32.75" y="42.21" width="7.91" height="1.98" transform="translate(-6.74 79.61) rotate(-89.62)"/><path class="cls-1" d="M34.71,47.14,34.66,56a2,2,0,0,0,2,2,1.83,1.83,0,0,0,1.4-.57,2,2,0,0,0,.59-1.39l0-8.9ZM36.64,60h0a3.94,3.94,0,0,1-3.93-4l.05-9.89a.94.94,0,0,1,.29-.69,1.08,1.08,0,0,1,.7-.29l5.93,0a1,1,0,0,1,1,1l0,9.88a3.94,3.94,0,0,1-4,3.94"/></svg>