<svg id="Layer_1" data-name="Layer 1" xmlns="http://www.w3.org/2000/svg" viewBox="0 0 80 80"><defs><style>.cls-1{fill:#575756;}.cls-2{fill:#ba9764;}</style></defs><path class="cls-1" d="M40,80A40,40,0,1,1,80,40,40,40,0,0,1,40,80ZM40,1.17A38.83,38.83,0,1,0,78.83,40,38.88,38.88,0,0,0,40,1.17Z"/><path class="cls-1" d="M24.32,43H17.44A2.44,2.44,0,0,1,15,40.56V36.29a7.94,7.94,0,0,1,7.93-7.93H36.24v1.22H22.93a6.72,6.72,0,0,0-6.71,6.71v4.27a1.22,1.22,0,0,0,1.22,1.22h6.88a1,1,0,0,0,1.05-1.05v-.35a1,1,0,0,0-1.05-1H18.66V36.29h1.22v1.83h4.44a2.27,2.27,0,0,1,2.27,2.26v.35A2.27,2.27,0,0,1,24.32,43Z"/><rect class="cls-1" x="18.66" y="42.39" width="1.22" height="19.51"/><rect class="cls-1" x="24.15" y="47.27" width="1.22" height="14.63"/><rect class="cls-1" x="29.63" y="53.36" width="1.22" height="8.54"/><polygon class="cls-1" points="30.85 44.83 29.63 44.83 29.63 33.3 34.3 32.86 34.42 34.08 30.85 34.41 30.85 44.83"/><path class="cls-1" d="M24.76,27.14c-2.56,0-4.27-2-4.27-4.87s1.71-4.88,4.27-4.88,4.26,2,4.26,4.88S27.31,27.14,24.76,27.14Zm0-8.53c-2.25,0-3.05,2-3.05,3.66s.8,3.65,3.05,3.65,3-2,3-3.65S27,18.61,24.76,18.61Z"/><path class="cls-2" d="M59.92,48.89a.61.61,0,0,1-.43-1,14.63,14.63,0,1,0-23-3.07.61.61,0,1,1-1.06.6,15.86,15.86,0,1,1,25,3.33A.61.61,0,0,1,59.92,48.89Z"/><path class="cls-2" d="M49.15,53.35a15.86,15.86,0,0,1-4.29-.59.61.61,0,0,1-.43-.75.6.6,0,0,1,.75-.42,14.87,14.87,0,0,0,8,0,.61.61,0,0,1,.33,1.18A16.16,16.16,0,0,1,49.15,53.35Z"/><path class="cls-2" d="M38.25,48.76a.62.62,0,0,1-.44-.18c-.34-.36-.68-.73-1-1.11a.61.61,0,0,1,1-.77c.29.35.59.7.91,1a.6.6,0,0,1,0,.86A.59.59,0,0,1,38.25,48.76Z"/><path class="cls-2" d="M49.15,43a5.49,5.49,0,0,1-2.85-.79.61.61,0,0,1,.63-1,4.27,4.27,0,1,0-2-3.65,4.37,4.37,0,0,0,.51,2,.61.61,0,0,1-1.07.58A5.49,5.49,0,1,1,49.15,43Z"/><path class="cls-2" d="M55.94,45.93a.6.6,0,0,1-.46-.21.61.61,0,0,1,.06-.86A9.75,9.75,0,1,0,40.7,42.38a.61.61,0,0,1-1.05.61,11,11,0,1,1,16.69,2.79A.6.6,0,0,1,55.94,45.93Z"/><path class="cls-2" d="M49.15,48.47a10.83,10.83,0,0,1-4.66-1,.6.6,0,0,1-.29-.81.61.61,0,0,1,.81-.29,9.81,9.81,0,0,0,8.26,0,.62.62,0,0,1,.82.29.61.61,0,0,1-.3.81A10.91,10.91,0,0,1,49.15,48.47Z"/><path class="cls-2" d="M42.53,46.08a.57.57,0,0,1-.39-.14,11.62,11.62,0,0,1-1-.89.6.6,0,0,1,0-.86.6.6,0,0,1,.86,0,8,8,0,0,0,.85.79.62.62,0,0,1,.08.86A.6.6,0,0,1,42.53,46.08Z"/><path class="cls-2" d="M30.66,48.78a.64.64,0,0,1-.3-.08L27.25,47a.59.59,0,0,1-.31-.52.62.62,0,0,1,.3-.54l3.7-2.13a.61.61,0,0,1,.6,0l3.11,1.73A.61.61,0,0,1,35,46a.6.6,0,0,1-.3.53L31,48.69A.55.55,0,0,1,30.66,48.78Zm-1.87-2.35,1.86,1L33.12,46l-1.87-1Z"/><path class="cls-2" d="M30.6,52.33a.65.65,0,0,1-.31-.08.61.61,0,0,1-.3-.54l.06-3.55a.61.61,0,0,1,.3-.52l3.7-2.14A.61.61,0,0,1,35,46L34.9,49.6a.62.62,0,0,1-.3.52l-3.7,2.13A.64.64,0,0,1,30.6,52.33Zm.66-3.81,0,2.13,2.47-1.42,0-2.13Z"/><path class="cls-2" d="M29.07,49.69a.61.61,0,0,1-.3-1.14L48.83,37a.62.62,0,0,1,.84.22.6.6,0,0,1-.23.83L29.38,49.61A.68.68,0,0,1,29.07,49.69Z"/><path class="cls-1" d="M63.78,62.61H49.15a.61.61,0,0,1-.61-.61,6.1,6.1,0,0,1,6.09-6.1h3.66a6.11,6.11,0,0,1,6.1,6.1A.61.61,0,0,1,63.78,62.61Zm-14-1.22H63.13a4.88,4.88,0,0,0-4.84-4.27H54.63A4.9,4.9,0,0,0,49.79,61.39Z"/><path class="cls-1" d="M49.15,62.61H34.51A.61.61,0,0,1,33.9,62,6.11,6.11,0,0,1,40,55.9h3.66a6.11,6.11,0,0,1,6.1,6.1A.61.61,0,0,1,49.15,62.61Zm-14-1.22H48.5a4.89,4.89,0,0,0-4.84-4.27H40A4.89,4.89,0,0,0,35.16,61.39Z"/><path class="cls-1" d="M56.46,54.69c-2.55,0-4.26-2-4.26-4.88s1.71-4.88,4.26-4.88,4.27,2,4.27,4.88S59,54.69,56.46,54.69Zm0-8.54c-2.25,0-3.05,2-3.05,3.66s.8,3.66,3.05,3.66,3-2,3-3.66S58.71,46.15,56.46,46.15Z"/><path class="cls-1" d="M41.83,54.69c-2.55,0-4.27-2-4.27-4.88s1.72-4.88,4.27-4.88,4.27,2,4.27,4.88S44.38,54.69,41.83,54.69Zm0-8.54c-2.25,0-3,2-3,3.66s.8,3.66,3,3.66,3.05-2,3.05-3.66S44.08,46.15,41.83,46.15Z"/></svg>