<svg id="Layer_1" data-name="Layer 1" xmlns="http://www.w3.org/2000/svg" viewBox="0 0 80 80"><defs><style>.cls-1{fill:#575756;}.cls-2{fill:#ba9764;}</style></defs><path class="cls-1" d="M40,80A40,40,0,1,1,80,40,40,40,0,0,1,40,80ZM40,1.17A38.83,38.83,0,1,0,78.83,40,38.88,38.88,0,0,0,40,1.17Z"/><path class="cls-1" d="M22.93,63.25A.8.8,0,0,1,22.3,62l1.95-2.48a.79.79,0,0,1,.75-.3,3.34,3.34,0,0,0,2.82-.84l.69-.63a.8.8,0,0,1,1.12.06.79.79,0,0,1-.06,1.12l-.68.62a4.91,4.91,0,0,1-3.67,1.3L23.55,63A.78.78,0,0,1,22.93,63.25Z"/><path class="cls-1" d="M57.07,63.25a.78.78,0,0,1-.62-.3l-1.67-2.13a5,5,0,0,1-3.68-1.31l-.67-.61a.79.79,0,0,1-.06-1.12.8.8,0,0,1,1.12-.06l.68.62a3.34,3.34,0,0,0,2.83.85.8.8,0,0,1,.75.3l2,2.48a.79.79,0,0,1-.14,1.11A.81.81,0,0,1,57.07,63.25Z"/><path class="cls-1" d="M14,57.24a.8.8,0,0,1-.69-1.2l.44-.74L13.27,51a7.93,7.93,0,0,1,1.49-5.8l3.07-4.9a.8.8,0,0,1,1.35.84l-3.1,5a6.42,6.42,0,0,0-1.23,4.72l.52,4.55a.75.75,0,0,1-.1.49l-.57,1A.77.77,0,0,1,14,57.24Z"/><path class="cls-1" d="M66,57.24a.77.77,0,0,1-.68-.4l-.57-1a.75.75,0,0,1-.1-.49l.52-4.55A6.39,6.39,0,0,0,64,46.16l-3.14-5a.8.8,0,0,1,1.35-.84l3.1,4.95A7.87,7.87,0,0,1,66.73,51l-.5,4.29.44.74a.8.8,0,0,1-.69,1.2Z"/><path class="cls-1" d="M48.11,20.31h0a.78.78,0,0,1-.74-.84c.28-4.75-1.88-5-1.91-5a.79.79,0,0,1-.73-.74l-.14-2.1a.79.79,0,1,1,1.58-.11l.1,1.54c1.08.42,3,1.83,2.68,6.54A.78.78,0,0,1,48.11,20.31Z"/><path class="cls-2" d="M39.84,38.65a.8.8,0,0,1-.34-.07h0L21.19,30.73a.8.8,0,0,1-.42-1.05A20.69,20.69,0,0,1,31.21,19a.8.8,0,0,1,.66,1.45,19,19,0,0,0-9.31,9.14L39.85,37l17.42-7A19.21,19.21,0,0,0,41.63,18.8a.79.79,0,0,1-.71-.86.78.78,0,0,1,.86-.72A20.84,20.84,0,0,1,48,18.81,20.56,20.56,0,0,1,59.05,30.18a.8.8,0,0,1-.44,1L40.13,38.6A1,1,0,0,1,39.84,38.65Z"/><path class="cls-1" d="M38.94,31.42a2.22,2.22,0,0,1-1.41-.51l-5-4a5.4,5.4,0,0,1-1.87-4,74.26,74.26,0,0,1,.69-7.9l.21-1.78c.12-1,.13-1.24.13-1.35s0-.16,0-.39a.79.79,0,0,1,1.57.21,1.34,1.34,0,0,0,0,.23c0,.15,0,.38-.14,1.49L33,15.18a74.34,74.34,0,0,0-.68,7.69,3.76,3.76,0,0,0,1.3,2.81l4.94,4a.64.64,0,0,0,.62.11.63.63,0,0,0,.43-.47l.06-.24a2.41,2.41,0,0,0,.07-.5A2.7,2.7,0,0,0,39.29,27L36.2,23.42a.81.81,0,0,1-.13-.83l.8-2a.8.8,0,0,1,.56-.47,4.68,4.68,0,0,0,4-4.08.8.8,0,0,1,1.57.27,6.19,6.19,0,0,1-4.8,5.25l-.47,1.14L40.52,26l.06.08a4.3,4.3,0,0,1,.72,2.63,4,4,0,0,1-.12.79l-.06.24a2.25,2.25,0,0,1-2.18,1.72Z"/><path class="cls-2" d="M38.53,61.31a20.73,20.73,0,0,1-15.31-6.78.79.79,0,1,1,1.17-1.07A19.14,19.14,0,0,0,37.78,59.7V41.12L20.67,33.79a19,19,0,0,0-.92,10.37.78.78,0,0,1-.63.93.8.8,0,0,1-.93-.63,20.65,20.65,0,0,1,1.32-12,.78.78,0,0,1,1-.41l18.33,7.86a.79.79,0,0,1,.48.73V60.51A.81.81,0,0,1,38.53,61.31Z"/><path class="cls-1" d="M23.24,56.11a.84.84,0,0,1-.37-.09.8.8,0,0,1-.33-1.08c1.79-3.38-.34-7.56-.36-7.61a.78.78,0,0,1,0-.77l2.23-3.68a3.43,3.43,0,0,0,.14-2.48.69.69,0,0,0-.53-.5.64.64,0,0,0-.64.24l-4,5.33a.79.79,0,1,1-1.27-.95l4-5.35a2.26,2.26,0,0,1,4,.82,4.8,4.8,0,0,1-.31,3.71l-2,3.32c.56,1.27,2,5.2.16,8.67A.78.78,0,0,1,23.24,56.11Z"/><path class="cls-2" d="M41.47,61.31a.82.82,0,0,1-.83-.8V40.6a.79.79,0,0,1,.48-.73L59.45,32a.78.78,0,0,1,1,.41,20.65,20.65,0,0,1,1.32,12,.8.8,0,0,1-.93.63.78.78,0,0,1-.63-.93,19,19,0,0,0-.92-10.37L42.22,41.12V59.7a19.14,19.14,0,0,0,13.39-6.24.79.79,0,1,1,1.17,1.07,20.73,20.73,0,0,1-15.31,6.78Z"/><path class="cls-1" d="M56.76,56.11a.78.78,0,0,1-.7-.42c-1.84-3.47-.4-7.4.16-8.67l-2-3.32A4.8,4.8,0,0,1,53.9,40a2.26,2.26,0,0,1,1.74-1.64,2.22,2.22,0,0,1,2.21.81l3.79,4.65a.8.8,0,1,1-1.23,1l-3.8-4.67A.65.65,0,0,0,56,39.9a.69.69,0,0,0-.53.5,3.38,3.38,0,0,0,.14,2.48l2.23,3.68a.78.78,0,0,1,0,.77s-2.14,4.25-.36,7.61A.8.8,0,0,1,57.13,56,.84.84,0,0,1,56.76,56.11Z"/></svg>