<svg id="Layer_1" data-name="Layer 1" xmlns="http://www.w3.org/2000/svg" viewBox="0 0 72.39 60"><defs><style>.cls-1{fill:#575756;}.cls-2{fill:#ba9764;}</style></defs><path class="cls-1" d="M66.39,60H12.61a1,1,0,0,1,0-2.07H66.39a1,1,0,1,1,0,2.07"/><path class="cls-1" d="M30.77,21.27c-3.7,0-5,3.21-5,6.22s1.32,6.23,5,6.23,5-3.22,5-6.23-1.31-6.22-5-6.22m0,14.52c-4.24,0-7.09-3.34-7.09-8.3s2.85-8.3,7.09-8.3,7.09,3.34,7.09,8.3-2.85,8.3-7.09,8.3"/><path class="cls-1" d="M64.66,55.16H57.29a1,1,0,0,1,0-2.08H64l6.33-14.79-22.59-.08a.75.75,0,0,0-.7.48l-2.83,7.52a1,1,0,1,1-1.94-.73l2.83-7.54a2.83,2.83,0,0,1,2.64-1.8H70.26a2.12,2.12,0,0,1,2,3L65.61,54.53a1,1,0,0,1-1,.63"/><path class="cls-1" d="M38.89,60a1,1,0,0,1-1-.81l-1.46-6.61a1,1,0,1,1,2-.45l1.29,5.8h13V57a1.85,1.85,0,0,0-1.85-1.85H45.15a1,1,0,0,1-1-.81l-1.3-5.83a9.93,9.93,0,0,0-9.69-7.88H27.28a9.91,9.91,0,0,0-9.9,9.9V59a1,1,0,1,1-2.07,0V50.53a12,12,0,0,1,12-12h5.87a12,12,0,0,1,11.72,9.52c0,.09.76,3.42,1.11,5h4.9A3.93,3.93,0,0,1,54.8,57v2a1,1,0,0,1-1,1Z"/><path class="cls-2" d="M16.58,33.15A16.58,16.58,0,1,1,33.11,15.38a1,1,0,1,1-2.06.15,14.49,14.49,0,1,0-10.16,14.9,1,1,0,1,1,.62,2,16.73,16.73,0,0,1-4.93.74"/><path class="cls-1" d="M9.32,24.87a1,1,0,0,1-.73-.31,1,1,0,0,1,0-1.46l7-7V9.32a1,1,0,0,1,2.07,0v7.26a1,1,0,0,1-.3.73l-7.25,7.25a1,1,0,0,1-.74.31"/></svg>