<svg id="Layer_1" data-name="Layer 1" xmlns="http://www.w3.org/2000/svg" viewBox="0 0 70.29 60"><defs><style>.cls-1{fill:#ba9764;}.cls-2{fill:#575756;}</style></defs><path class="cls-1" d="M60,55.06a.87.87,0,0,1,.41.11l4.29,2.37-.83-5.08a.84.84,0,0,1,.23-.74l3.55-3.64-4.87-.74a.84.84,0,0,1-.64-.48L60,42.3l-2.14,4.56a.84.84,0,0,1-.64.48l-4.87.74,3.55,3.64a.87.87,0,0,1,.23.74l-.83,5.08,4.28-2.37a.91.91,0,0,1,.42-.11M65.83,60a.88.88,0,0,1-.42-.11L60,56.9l-5.41,3a.86.86,0,0,1-.91,0,.84.84,0,0,1-.35-.84l1-6.39L50,48.09a.86.86,0,0,1,.48-1.45l6.07-.92,2.71-5.8a.87.87,0,0,1,1.56,0l2.71,5.8,6.07.92A.86.86,0,0,1,70,48.09l-4.41,4.52,1,6.39a.84.84,0,0,1-.35.84.82.82,0,0,1-.49.16"/><path class="cls-1" d="M10.28,55.06a.88.88,0,0,1,.42.11L15,57.54l-.82-5.08a.81.81,0,0,1,.23-.74l3.55-3.64-4.87-.74a.85.85,0,0,1-.65-.48L10.28,42.3,8.15,46.86a.85.85,0,0,1-.65.48l-4.87.74,3.55,3.64a.87.87,0,0,1,.24.74l-.83,5.08,4.28-2.37a.87.87,0,0,1,.41-.11M16.11,60a.87.87,0,0,1-.41-.11l-5.42-3-5.41,3A.86.86,0,0,1,3.61,59l1.05-6.39L.24,48.09a.87.87,0,0,1,.49-1.45l6.06-.92,2.72-5.8a.86.86,0,0,1,1.55,0l2.72,5.8,6.06.92a.86.86,0,0,1,.49,1.45l-4.41,4.52L17,59a.86.86,0,0,1-.36.84.78.78,0,0,1-.49.16"/><path class="cls-1" d="M35.14,55.06a.91.91,0,0,1,.42.11l4.28,2.37L39,52.46a.87.87,0,0,1,.23-.74l3.55-3.64-4.86-.74a.84.84,0,0,1-.65-.48L35.14,42.3,33,46.86a.87.87,0,0,1-.65.48l-4.87.74L31,51.72a.84.84,0,0,1,.23.74l-.83,5.08,4.29-2.37a.87.87,0,0,1,.41-.11M41,60a.91.91,0,0,1-.42-.11l-5.41-3-5.41,3A.86.86,0,0,1,28.47,59l1-6.39L25.1,48.09a.87.87,0,0,1-.2-.87.86.86,0,0,1,.68-.58l6.07-.92,2.72-5.8a.85.85,0,0,1,.77-.49.86.86,0,0,1,.78.49l2.72,5.8,6.06.92a.85.85,0,0,1,.68.58.83.83,0,0,1-.2.87l-4.41,4.52,1,6.39a.86.86,0,0,1-.36.84A.8.8,0,0,1,41,60"/><polygon class="cls-2" points="25.71 35.14 15.43 35.14 15.43 33.43 24 33.43 24 15.43 15.43 15.43 15.43 13.71 25.71 13.71 25.71 35.14"/><path class="cls-2" d="M50.57,24.86h-.86V23.14h.86a1.72,1.72,0,1,0,0-3.43h-.86V18h.86a3.43,3.43,0,0,1,0,6.86"/><path class="cls-2" d="M50.57,30h-.86V28.29h.86a1.72,1.72,0,1,0,0-3.43h-.86V23.14h.86a3.43,3.43,0,0,1,0,6.86"/><path class="cls-2" d="M50.57,35.14H36.86a10,10,0,0,1-5.67-1.71H24v-18h6.28c1.4-1,6.73-11.09,7.51-13.86l0-.11A2.6,2.6,0,0,1,39.94,0a2.38,2.38,0,0,1,2,.64,4.25,4.25,0,0,1,.94,3.44c0,.36-.15,1.67-1.9,8.76h9.63a3.43,3.43,0,0,1,0,6.86h-.86V18h.86a1.72,1.72,0,1,0,0-3.43H38.75L39,13.51c1.24-5,2.11-8.82,2.11-9.37V4a2.89,2.89,0,0,0-.41-2.14.69.69,0,0,0-.58-.17,1,1,0,0,0-.71.39C38.83,4,33,16.65,30.63,17.13H25.72V31.71h6l.22.17a8.28,8.28,0,0,0,4.9,1.55H50.57a1.72,1.72,0,1,0,0-3.43h-.86V28.29h.86a3.43,3.43,0,1,1,0,6.85"/></svg>