<svg id="Layer_1" data-name="Layer 1" xmlns="http://www.w3.org/2000/svg" viewBox="0 0 56.76 60"><defs><style>.cls-1{fill:#575756;}.cls-2{fill:#ba9764;}</style></defs><path class="cls-1" d="M12.16,60a.81.81,0,0,1-.81-.81V38.92a.81.81,0,1,1,1.62,0V59.19a.81.81,0,0,1-.81.81"/><path class="cls-1" d="M26.76,60a.81.81,0,0,1-.81-.81V27.57a.81.81,0,0,1,.81-.81h.81a.81.81,0,0,1,0,1.62V59.19a.81.81,0,0,1-.81.81"/><path class="cls-1" d="M19.46,60a.81.81,0,0,1-.81-.81V39.73a.81.81,0,1,1,1.62,0V59.19a.81.81,0,0,1-.81.81"/><path class="cls-1" d="M31.62,41.35H29.19a.81.81,0,0,1,0-1.62h1.62V25.14c0-5.17-3.41-8.92-8.1-8.92H16.22c-4.43,0-7.76,3.35-8.08,8.16a.84.84,0,0,1-.87.76.82.82,0,0,1-.75-.87c.39-5.69,4.38-9.67,9.7-9.67h6.49c5.54,0,9.72,4.53,9.72,10.54v15.4a.81.81,0,0,1-.81.81"/><path class="cls-1" d="M19.46,1.62c-3,0-4.05,2.62-4.05,4.87s1.06,4.86,4.05,4.86,4.05-2.62,4.05-4.86-1.06-4.87-4.05-4.87m0,11.35c-3.4,0-5.67-2.6-5.67-6.48S16.06,0,19.46,0s5.67,2.61,5.67,6.49S22.86,13,19.46,13"/><path class="cls-1" d="M4.06,30.81A.82.82,0,0,1,3.24,30V27.57a.82.82,0,0,1,1.63,0V30a.81.81,0,0,1-.81.81"/><path class="cls-1" d="M15.41,39.73H4.05a.81.81,0,0,1-.81-.81V35.68a.81.81,0,0,1,1.62,0v2.43H14.6V26a.81.81,0,0,0-.81-.81H12.16a.82.82,0,0,1,0-1.63h1.63A2.44,2.44,0,0,1,16.22,26v13a.81.81,0,0,1-.81.81"/><path class="cls-1" d="M1.62,26.76h9.73V26a2.38,2.38,0,0,1,.14-.81h-9a.82.82,0,0,0-.82.81Zm10.54,1.62H.81A.81.81,0,0,1,0,27.57V26a2.43,2.43,0,0,1,2.44-2.43H13.78a.81.81,0,1,1,0,1.62A.81.81,0,0,0,13,26v1.62a.81.81,0,0,1-.81.81"/><path class="cls-1" d="M3.37,31.62a.12.12,0,0,0-.12.13v3a.12.12,0,0,0,.12.13H4.74a.13.13,0,0,0,.13-.13v-3a.13.13,0,0,0-.13-.13Zm1.37,4.87H3.37a1.75,1.75,0,0,1-1.75-1.75v-3A1.75,1.75,0,0,1,3.37,30H4.74a1.75,1.75,0,0,1,1.75,1.75v3a1.75,1.75,0,0,1-1.75,1.75"/><path class="cls-1" d="M42.16,36.49A14.58,14.58,0,0,1,31.1,31.41a.81.81,0,0,1,1.23-1.06,13,13,0,1,0-2.58-12.24.81.81,0,0,1-1.55-.47,14.6,14.6,0,1,1,14,18.85"/><path class="cls-1" d="M40.54,7.3h3.24V4.87H40.54ZM44.6,8.92H39.73a.81.81,0,0,1-.81-.81v-4a.81.81,0,0,1,.81-.81H44.6a.81.81,0,0,1,.81.81V8.11a.81.81,0,0,1-.81.81"/><path class="cls-1" d="M47,4.87H37.3a.82.82,0,0,1,0-1.63H47a.82.82,0,0,1,0,1.63"/><path class="cls-1" d="M51.46,10.64l1.14,1.15L54,10.4,52.84,9.26Zm1.14,3.11a.81.81,0,0,1-.57-.24l-2.3-2.3a.81.81,0,0,1,0-1.14l2.54-2.53a.81.81,0,0,1,1.15,0l2.29,2.29a.81.81,0,0,1,0,1.14l-2.53,2.54a.82.82,0,0,1-.58.24"/><path class="cls-2" d="M42.16,25.14a.82.82,0,0,1-.57-.24l-2.46-2.43a.83.83,0,0,1,0-1.15.82.82,0,0,1,1.15,0l1.77,1.77L48,14.77a.81.81,0,0,1,1.13-.19.83.83,0,0,1,.19,1.14L42.82,24.8a.81.81,0,0,1-.59.33h-.07"/><path class="cls-2" d="M42.16,29.19a7.3,7.3,0,0,1,0-14.6.82.82,0,0,1,.81.82.81.81,0,0,1-.81.81,5.67,5.67,0,1,0,4.38,2.06.82.82,0,0,1,.1-1.15.83.83,0,0,1,1.15.11,7.3,7.3,0,0,1-5.63,12"/><path class="cls-2" d="M56,46.22H40.54a.81.81,0,0,1,0-1.62H56a.81.81,0,0,1,0,1.62"/><path class="cls-2" d="M35.68,46.22H34.05a.81.81,0,0,1,0-1.62h1.63a.81.81,0,0,1,0,1.62"/><path class="cls-2" d="M56,51.08H40.54a.81.81,0,1,1,0-1.62H56a.81.81,0,1,1,0,1.62"/><path class="cls-2" d="M35.68,51.08H34.05a.81.81,0,1,1,0-1.62h1.63a.81.81,0,1,1,0,1.62"/><path class="cls-2" d="M56,56H40.54a.82.82,0,0,1,0-1.63H56A.82.82,0,0,1,56,56"/><path class="cls-2" d="M35.68,56H34.05a.82.82,0,0,1,0-1.63h1.63a.82.82,0,0,1,0,1.63"/></svg>