<svg id="Layer_1" data-name="Layer 1" xmlns="http://www.w3.org/2000/svg" viewBox="0 0 60.31 60"><defs><style>.cls-1{fill:#575756;}.cls-2{fill:#ba9764;}</style></defs><path class="cls-1" d="M51.24,13.48h0m-39.33,0h0M31.71,60h-.18A2.77,2.77,0,0,1,30,59.5,59.51,59.51,0,0,1,12.57,41.84a.91.91,0,0,1,1.53-1A57.88,57.88,0,0,0,31,58a1,1,0,0,0,.61.19,1,1,0,0,0,.57-.19C51.58,45.22,57,25,58.46,16.88l0-.17c0-.08,0-.12-.06-.12-.53-.08-5.79-1-7.5-1.32-.58-.1-.92-.16-2-5.12C46.77,9,33.73,2.81,31.63,1.88c-2.09.88-15.09,7-17.26,8.1,0,.12-.07.28-.12.47-1.11,4.36-1.3,4.7-2,4.82-1.85.33-7.06,1.26-7.48,1.32a.09.09,0,0,0-.07.09l0,.2c.19,1.05.41,2.14.66,3.22a.91.91,0,0,1-.67,1.1.92.92,0,0,1-1.1-.68c-.26-1.12-.49-2.24-.68-3.33l0-.13a1.43,1.43,0,0,1,0-.38,1.9,1.9,0,0,1,1.61-1.89l7-1.23c.29-.79.81-2.83,1-3.56.26-1,.26-1,.39-1.18s.26-.34,9.29-4.58S31.39,0,31.65,0s.42,0,9.46,4.32c9.22,4.4,9.25,4.49,9.42,4.94,0,0,0,.08,0,.12.36,1.58.83,3.45,1.1,4.18l7,1.23a1.9,1.9,0,0,1,1.63,1.89,2.07,2.07,0,0,1,0,.35l0,.18c-1.48,8.33-7.08,29.14-27.07,42.29a2.82,2.82,0,0,1-1.47.5"/><path class="cls-2" d="M45.27,12.83a.92.92,0,0,1-.39-.09C40,10.37,33.15,7.13,31.66,6.48c-1.46.61-8.12,3.72-13.25,6.16a.91.91,0,0,1-1.21-.43A.9.9,0,0,1,17.63,11c8.91-4.24,13.64-6.4,14.05-6.4.63,0,13.86,6.44,14,6.5a.92.92,0,0,1,.42,1.22.91.91,0,0,1-.82.51"/><path class="cls-2" d="M9.23,40.58H4.4A4.41,4.41,0,0,1,0,36.17V26.8a4.4,4.4,0,0,1,4.4-4.4H9.23a4.4,4.4,0,0,1,4.4,4.4v1.05H31.82a.91.91,0,1,1,0,1.82H12.73a.91.91,0,0,1-.91-.91v-2a2.59,2.59,0,0,0-2.59-2.59H4.4A2.58,2.58,0,0,0,1.82,26.8v9.37A2.58,2.58,0,0,0,4.4,38.76H9.23a2.59,2.59,0,0,0,2.59-2.59v-2a.9.9,0,0,1,.91-.9h20.9a.91.91,0,1,1,0,1.81h-20v1.05a4.41,4.41,0,0,1-4.4,4.41"/><path class="cls-2" d="M5.45,35.12H8.18V27.85H5.45Zm2.73,1.82H5.45a1.82,1.82,0,0,1-1.82-1.82V27.85A1.83,1.83,0,0,1,5.45,26H8.18A1.83,1.83,0,0,1,10,27.85v7.27a1.82,1.82,0,0,1-1.82,1.82"/><path class="cls-2" d="M34.92,40h-6.2a.91.91,0,0,1-.71-.33.94.94,0,0,1-.19-.76l.87-4.32a.91.91,0,1,1,1.78.36l-.65,3.23h4L33,34.31a.91.91,0,0,1,.27-.85,2.15,2.15,0,0,0,.71-1.6,2.19,2.19,0,0,0-2.19-2.19.91.91,0,0,1,0-1.82,4,4,0,0,1,3.09,6.56l.9,4.51A.91.91,0,0,1,34.92,40"/><path class="cls-1" d="M36.05,44.37a.92.92,0,0,1-.84-.55.93.93,0,0,1,.48-1.2A8.84,8.84,0,0,0,36.84,42,9.91,9.91,0,1,0,25.79,25.63a.91.91,0,1,1-1.1-1.44,11.62,11.62,0,0,1,7.11-2.4,11.72,11.72,0,0,1,9,19.18,11.7,11.7,0,0,1-4.43,3.32.78.78,0,0,1-.36.08"/><path class="cls-1" d="M31.8,45.24A11.6,11.6,0,0,1,24.93,43a.9.9,0,0,1-.2-1.27.92.92,0,0,1,1.27-.2,9.8,9.8,0,0,0,5.8,1.88.91.91,0,1,1,0,1.82"/><path class="cls-1" d="M23,40.69a.92.92,0,0,1-.74-.39,11.91,11.91,0,0,1-1.17-2,.91.91,0,0,1,1.67-.74,9.34,9.34,0,0,0,1,1.74.91.91,0,0,1-.21,1.27,1,1,0,0,1-.53.17"/></svg>