<svg id="Layer_1" data-name="Layer 1" xmlns="http://www.w3.org/2000/svg" viewBox="0 0 68.11 60"><defs><style>.cls-1{fill:#575756;}.cls-2{fill:#ba9764;}</style></defs><path class="cls-1" d="M33.77,35.52a.78.78,0,0,1-.78-.78V23.1a1.16,1.16,0,0,0-1.16-1.16H25a1.16,1.16,0,0,0-1.16,1.16v5.82a.79.79,0,0,1-1.57,0V23.1A2.72,2.72,0,0,1,25,20.38h6.79a2.72,2.72,0,0,1,2.72,2.72V34.74a.78.78,0,0,1-.78.78"/><path class="cls-1" d="M44.44,37.47a.78.78,0,0,1-.78-.79V13.4a1.16,1.16,0,0,0-1.16-1.16H35.71a1.16,1.16,0,0,0-1.16,1.16V34.74a.78.78,0,1,1-1.56,0V13.4a2.73,2.73,0,0,1,2.72-2.73H42.5a2.73,2.73,0,0,1,2.72,2.73V36.68a.78.78,0,0,1-.78.79"/><path class="cls-1" d="M44.44,37.47a.78.78,0,0,1-.78-.79v-34A2.72,2.72,0,0,1,46.38,0h6.79A2.73,2.73,0,0,1,55.9,2.72v33a.79.79,0,0,1-1.57,0v-33a1.16,1.16,0,0,0-1.16-1.15H46.38a1.16,1.16,0,0,0-1.16,1.15v34a.78.78,0,0,1-.78.79"/><path class="cls-2" d="M51.23,48.14a.74.74,0,0,1-.45-.15L37.6,38.58l-8.3,4.61a.78.78,0,1,1-.76-1.37L37.27,37a.8.8,0,0,1,.84,0L51,46.25,66.11,23.63a.78.78,0,1,1,1.3.87L51.88,47.79a.72.72,0,0,1-.51.33l-.14,0"/><path class="cls-2" d="M67.32,30.63a.78.78,0,0,1-.78-.71L66.12,25l-4.44,1.45a.78.78,0,0,1-1-.5.8.8,0,0,1,.51-1l5.37-1.75a.79.79,0,0,1,.67.09.78.78,0,0,1,.35.59l.51,5.85a.78.78,0,0,1-.71.85h-.07"/><path class="cls-2" d="M15.78,45.16l8.93,8.94a13.31,13.31,0,0,0-8.93-22.43ZM24.68,56a.69.69,0,0,1-.52-.2L14.45,46a.75.75,0,0,1-.23-.55V30.86a.78.78,0,0,1,.78-.78h0A14.89,14.89,0,0,1,29.92,45,14.74,14.74,0,0,1,25.4,55.63a1.14,1.14,0,0,0-.11.11,1,1,0,0,1-.61.21"/><path class="cls-1" d="M15,60a15,15,0,0,1-4.57-29.21.78.78,0,1,1,.48,1.49,13.4,13.4,0,1,0,9.74,24.91.78.78,0,1,1,.66,1.41A14.72,14.72,0,0,1,15,60"/></svg>