<svg id="Layer_1" data-name="Layer 1" xmlns="http://www.w3.org/2000/svg" viewBox="0 0 80 80"><defs><style>.cls-1{fill:#575756;}.cls-2{fill:#ba9764;}</style></defs><path class="cls-1" d="M40,80A40,40,0,1,1,80,40,40,40,0,0,1,40,80ZM40,1.17A38.83,38.83,0,1,0,78.83,40,38.88,38.88,0,0,0,40,1.17Z"/><path class="cls-1" d="M42.9,58.79a.7.7,0,0,1-.68-.53c-.92-3.71-.51-6.55,1.21-8.45,2.92-3.19,8.45-2.38,8.69-2.35a.7.7,0,0,1,.58.8.69.69,0,0,1-.79.58s-5-.72-7.45,1.92c-1.38,1.52-1.68,3.93-.88,7.16a.7.7,0,0,1-.51.85Z"/><path class="cls-1" d="M61,56.57a.73.73,0,0,1-.42-.14,9.8,9.8,0,0,1-1.35-1.17.71.71,0,0,1,.06-1,.7.7,0,0,1,1,.06,8,8,0,0,0,1.13,1A.7.7,0,0,1,61,56.57Z"/><path class="cls-1" d="M46.72,65.79a2.15,2.15,0,0,1-1.78-.94l-2.69-3.93c-.68-1-.69-2.66.31-3.34l.24-.16A2.52,2.52,0,0,1,46,58.3l2.71,3.94a2.16,2.16,0,0,1,.35,1.62,2.19,2.19,0,0,1-.9,1.39l-.23.16A2.23,2.23,0,0,1,46.72,65.79Zm-3.13-7.22-.23.16a.72.72,0,0,0-.19.54,1.67,1.67,0,0,0,.23.86l2.69,3.92a.76.76,0,0,0,1.06.2l.23-.16a.76.76,0,0,0,.2-1.06l-2.72-3.94c-.28-.41-1-.7-1.27-.52Z"/><path class="cls-1" d="M57.82,63.86h-.43a2.44,2.44,0,0,1-1.7-.78A2.47,2.47,0,0,1,55,61.31l.19-5.79a2.87,2.87,0,0,1,2.51-2.77h.4a2.72,2.72,0,0,1,2.35,2.84l-.21,5.9a2.4,2.4,0,0,1-.78,1.7A2.43,2.43,0,0,1,57.82,63.86Zm-.09-9.71c-.49,0-1.09.76-1.11,1.42l-.19,5.79a1.06,1.06,0,0,0,1,1.09h.34a1.06,1.06,0,0,0,1.09-1l.22-5.9c0-.64-.51-1.37-1-1.39h-.35Z"/><path class="cls-1" d="M53.74,64.56a2.31,2.31,0,0,1-1.29-.4,2.27,2.27,0,0,1-1-1.46l-.95-5.22a2.57,2.57,0,0,1,1.71-3l.3-.06a2.18,2.18,0,0,1,1.85.6,3,3,0,0,1,.94,1.6l1,5.16a2.29,2.29,0,0,1-1.82,2.68l-.3.06A2.15,2.15,0,0,1,53.74,64.56Zm-.86-8.77h-.07l-.3.06c-.39.07-.71.81-.6,1.37l1,5.22a.91.91,0,0,0,1,.7l.3,0A.91.91,0,0,0,54.92,62l-1-5.16a1.64,1.64,0,0,0-.5-.81A1,1,0,0,0,52.88,55.79Zm-.2-.68Z"/><path class="cls-1" d="M50.27,65.66a2.32,2.32,0,0,1-2.14-1.48l-1.94-5.13a2.54,2.54,0,0,1,0-1.78A2.22,2.22,0,0,1,47.45,56l.29-.11a2.64,2.64,0,0,1,3.08,1.68l1.88,4.92a2.29,2.29,0,0,1-1.33,3l-.28.11A2.33,2.33,0,0,1,50.27,65.66Zm-2-8.51-.28.11a.79.79,0,0,0-.45.5,1.16,1.16,0,0,0,0,.8l1.94,5.12a.89.89,0,0,0,1.15.52l.29-.11a.89.89,0,0,0,.51-1.15L49.51,58c-.2-.54-.89-1-1.28-.87Z"/><path class="cls-1" d="M63,59a1.79,1.79,0,0,1-.78-.19A5.35,5.35,0,0,1,61,57.69c-1.25-1.65-.22-3.57.49-4.36a.7.7,0,0,1,1,.93c-.06.07-1.27,1.46-.44,2.55a3.56,3.56,0,0,0,.81.71c.16.09.53,0,.89-.41a2.46,2.46,0,0,0,.44-2.9l-.08-.15a7.74,7.74,0,0,0-1.23-1.52c-.45-.49-1-1.16-1.83-2.07-4.61-5.29-10-1-10.22-.77a.7.7,0,0,1-.9-1.08c.07-.06,6.65-5.4,12.18.93.79.9,1.37,1.57,1.81,2.06a8.85,8.85,0,0,1,1.42,1.78l.07.13a3.89,3.89,0,0,1-.65,4.57A2.58,2.58,0,0,1,63,59Z"/><path class="cls-1" d="M37.1,58.79l-.17,0a.7.7,0,0,1-.51-.85c.8-3.23.5-5.64-.88-7.16-2.41-2.64-7.39-1.92-7.45-1.92a.69.69,0,0,1-.79-.58.7.7,0,0,1,.58-.8c.24,0,5.77-.84,8.69,2.35,1.72,1.9,2.13,4.74,1.21,8.45A.7.7,0,0,1,37.1,58.79Z"/><path class="cls-1" d="M19.05,56.57a.7.7,0,0,1-.41-1.27,7.06,7.06,0,0,0,1.13-1,.7.7,0,0,1,1.05.94,9.8,9.8,0,0,1-1.35,1.17A.73.73,0,0,1,19.05,56.57Z"/><path class="cls-1" d="M33.27,65.78a2.24,2.24,0,0,1-1.22-.37l-.23-.16a2.17,2.17,0,0,1-.55-3L34,58.3a2.52,2.52,0,0,1,3.22-.88l.24.16c1,.68,1,2.36.31,3.34l-2.69,3.93a2.17,2.17,0,0,1-1.39.9A2.6,2.6,0,0,1,33.27,65.78Zm2.92-7.27a1.5,1.5,0,0,0-1,.58L32.42,63a.76.76,0,0,0,.2,1.06l.23.16a.72.72,0,0,0,.57.12.78.78,0,0,0,.49-.32l2.69-3.92c.31-.45.29-1.23,0-1.4l-.23-.16A.36.36,0,0,0,36.19,58.51Z"/><path class="cls-1" d="M22.18,63.86a2.43,2.43,0,0,1-1.67-.66,2.4,2.4,0,0,1-.78-1.7l-.21-5.9a2.72,2.72,0,0,1,2.35-2.84h.33a2.35,2.35,0,0,1,1.84.93,3.17,3.17,0,0,1,.74,1.84L25,61.31a2.46,2.46,0,0,1-2.36,2.54h-.43Zm-.26-9.7c-.5,0-1,.75-1,1.39l.22,5.9a1,1,0,0,0,.34.73,1,1,0,0,0,.75.28h.34a1.05,1.05,0,0,0,1-1.09l-.19-5.79a1.75,1.75,0,0,0-.42-1,.94.94,0,0,0-.71-.42Z"/><path class="cls-1" d="M26.26,64.56a2.15,2.15,0,0,1-.43,0l-.3-.06a2.28,2.28,0,0,1-1.47-1,2.25,2.25,0,0,1-.35-1.71l1-5.16a2.67,2.67,0,0,1,2.79-2.2l.3.06a2.06,2.06,0,0,1,1.46,1.21,3,3,0,0,1,.25,1.8l-.95,5.2A2.31,2.31,0,0,1,26.26,64.56Zm.86-8.77c-.4,0-1,.57-1.08,1.09l-1,5.15a1,1,0,0,0,.14.68.93.93,0,0,0,.57.38l.3,0a.88.88,0,0,0,1.05-.71l.95-5.2A1.6,1.6,0,0,0,28,56.3c-.06-.12-.22-.4-.47-.45l-.3-.06Z"/><path class="cls-1" d="M29.73,65.66a2.33,2.33,0,0,1-.82-.15l-.28-.11a2.29,2.29,0,0,1-1.33-3l1.88-4.92a2.64,2.64,0,0,1,3.08-1.68l.29.11a2.42,2.42,0,0,1,1.26,3.1l-1.94,5.13a2.32,2.32,0,0,1-2.14,1.48Zm1.88-8.54a1.45,1.45,0,0,0-1.12.9l-1.88,4.92a.89.89,0,0,0,.51,1.15l.29.11a.89.89,0,0,0,.68,0,.94.94,0,0,0,.48-.5l1.93-5.12a1,1,0,0,0-.45-1.3l-.28-.11A.41.41,0,0,0,31.61,57.12Z"/><path class="cls-1" d="M17,59a2.58,2.58,0,0,1-1.78-.86,3.89,3.89,0,0,1-.65-4.57l.07-.13a8.85,8.85,0,0,1,1.42-1.78c.44-.49,1-1.16,1.81-2.06,5.52-6.33,12.11-1,12.18-.93a.7.7,0,0,1-.9,1.08c-.22-.19-5.61-4.52-10.22.77-.8.91-1.38,1.58-1.83,2.07a7.74,7.74,0,0,0-1.23,1.52l-.08.15a2.46,2.46,0,0,0,.44,2.9c.36.38.73.5.89.41a3.86,3.86,0,0,0,.84-.74c.81-1.08-.46-2.5-.47-2.51a.7.7,0,0,1,1-.94c.71.79,1.74,2.71.52,4.33a5.56,5.56,0,0,1-1.27,1.1A1.76,1.76,0,0,1,17,59Z"/><path class="cls-2" d="M43.85,40.15h-.07a.7.7,0,0,1-.62-.77l.05-.52a7,7,0,0,1,2.06-4.09,7.37,7.37,0,0,0-6.13-12.51,7.41,7.41,0,0,0-6.5,6.38,7.3,7.3,0,0,0,2.21,6.24,6.55,6.55,0,0,1,2,4.37v.15a.7.7,0,0,1-.64.75.69.69,0,0,1-.75-.64l0-.16a5.16,5.16,0,0,0-1.56-3.46,8.69,8.69,0,0,1-2.63-7.43,8.83,8.83,0,0,1,17.58,1.12,8.68,8.68,0,0,1-2.57,6.18A5.64,5.64,0,0,0,44.6,39l-.05.5A.7.7,0,0,1,43.85,40.15Z"/><path class="cls-2" d="M40,19.12a.7.7,0,0,1-.7-.7V14.91a.7.7,0,0,1,1.4,0v3.51A.7.7,0,0,1,40,19.12Z"/><path class="cls-2" d="M55.07,31.64H51.54a.7.7,0,1,1,0-1.4h3.53a.7.7,0,1,1,0,1.4Z"/><path class="cls-2" d="M49.91,23.48a.7.7,0,0,1-.48-1.21L52,19.89a.71.71,0,0,1,1,0,.7.7,0,0,1-.05,1L50.38,23.3A.71.71,0,0,1,49.91,23.48Z"/><path class="cls-2" d="M29.92,23.72a.74.74,0,0,1-.48-.18l-2.59-2.38a.7.7,0,0,1,0-1,.71.71,0,0,1,1,0l2.59,2.37a.69.69,0,0,1,0,1A.68.68,0,0,1,29.92,23.72Z"/><path class="cls-2" d="M28.19,31.64H24.66a.7.7,0,0,1,0-1.4h3.53a.7.7,0,1,1,0,1.4Z"/><path class="cls-2" d="M44,43.36H35.91a.7.7,0,0,1,0-1.4H44a.7.7,0,0,1,0,1.4Z"/><path class="cls-2" d="M42.47,46.56h-5a.7.7,0,1,1,0-1.4h5a.7.7,0,0,1,0,1.4Z"/></svg>