<svg id="Layer_1" data-name="Layer 1" xmlns="http://www.w3.org/2000/svg" viewBox="0 0 80 80"><defs><style>.cls-1{fill:#575756;}.cls-2{fill:#ba9764;}</style></defs><path class="cls-1" d="M40,80A40,40,0,1,1,80,40,40,40,0,0,1,40,80ZM40,1.17A38.83,38.83,0,1,0,78.83,40,38.88,38.88,0,0,0,40,1.17Z"/><path class="cls-1" d="M44.09,48.62H44a.71.71,0,0,1-.63-.77l.06-.56A7.41,7.41,0,0,1,45.62,43a7.81,7.81,0,0,0-.31-11.36,7.92,7.92,0,0,0-13.14,4.83,7.79,7.79,0,0,0,2.36,6.65,6.9,6.9,0,0,1,2.09,4.6v.16a.7.7,0,0,1-.64.75.7.7,0,0,1-.75-.65V47.8a5.56,5.56,0,0,0-1.67-3.68,9.19,9.19,0,0,1-2.78-7.83,9.32,9.32,0,0,1,8.16-8,9.42,9.42,0,0,1,7.3,2.32A9.2,9.2,0,0,1,46.61,44a6,6,0,0,0-1.77,3.47l-.05.54A.7.7,0,0,1,44.09,48.62Z"/><path class="cls-1" d="M44.23,51.27H35.68a.7.7,0,0,1,0-1.4h8.55a.7.7,0,0,1,0,1.4Z"/><path class="cls-1" d="M42.62,53.92H37.28a.7.7,0,1,1,0-1.4h5.34a.7.7,0,0,1,0,1.4Z"/><path class="cls-2" d="M38.22,42.65A1.37,1.37,0,0,1,37,41.79c-.35-.87-.75-1.87-1.11-2.8H34.46v-1.4h1.85A.67.67,0,0,1,37,38c.4,1,.88,2.24,1.28,3.24l1.09-5.71A1.38,1.38,0,0,1,42,35.37l1.33,3.73.76-1.74a.72.72,0,0,1,.64-.4H46v1.4h-.8l-.62,1.33a1.37,1.37,0,0,1-1.32.79A1.36,1.36,0,0,1,42,39.57l-1.33-3.73-1.09,5.7a1.36,1.36,0,0,1-1.23,1.1Z"/><path class="cls-2" d="M37.56,64.55a.73.73,0,0,1-.35-.09l-17-9.85A.7.7,0,1,1,21,53.4l17,9.85a.7.7,0,0,1-.35,1.3Z"/><path class="cls-2" d="M42.38,64.59a.71.71,0,0,1-.61-.35.71.71,0,0,1,.25-1l17-9.89a.71.71,0,0,1,1,.26.7.7,0,0,1-.25,1l-17,9.88A.64.64,0,0,1,42.38,64.59Z"/><path class="cls-2" d="M61.7,50.5a.7.7,0,0,1-.7-.7V30.2a.7.7,0,1,1,1.4,0V49.8A.7.7,0,0,1,61.7,50.5Z"/><path class="cls-2" d="M59.17,26.7a.64.64,0,0,1-.35-.1L42.27,17A.7.7,0,1,1,43,15.77l16.54,9.62a.7.7,0,0,1-.35,1.31Z"/><path class="cls-2" d="M20.83,26.7a.72.72,0,0,1-.61-.35.71.71,0,0,1,.26-1L37,15.83a.7.7,0,0,1,1,.25.71.71,0,0,1-.25,1L21.18,26.61A.73.73,0,0,1,20.83,26.7Z"/><path class="cls-2" d="M18.3,50.5a.7.7,0,0,1-.7-.7V30.2a.7.7,0,0,1,1.4,0V49.8A.7.7,0,0,1,18.3,50.5Z"/><path class="cls-2" d="M40,26a.7.7,0,0,1-.7-.7V18.12a.7.7,0,1,1,1.4,0V25.3A.7.7,0,0,1,40,26Z"/><path class="cls-2" d="M40,63.1a.7.7,0,0,1-.7-.7V57.5a.7.7,0,0,1,1.4,0v4.9A.7.7,0,0,1,40,63.1Z"/><path class="cls-2" d="M20.61,51.56a.7.7,0,0,1-.36-1.3l6.33-3.69a.7.7,0,1,1,.71,1.21L21,51.47A.73.73,0,0,1,20.61,51.56Z"/><path class="cls-2" d="M52.31,33.58a.69.69,0,0,1-.35-1.3l6.82-4a.7.7,0,0,1,.7,1.21l-6.82,4A.73.73,0,0,1,52.31,33.58Z"/><path class="cls-2" d="M27.28,33.64a.7.7,0,0,1-.36-.1l-6.41-3.85a.7.7,0,0,1,.72-1.2l6.41,3.85a.7.7,0,0,1,.24,1A.69.69,0,0,1,27.28,33.64Z"/><path class="cls-2" d="M58.86,52.18a.68.68,0,0,1-.34-.08L50.92,48a.7.7,0,1,1,.67-1.22l7.6,4.13a.69.69,0,0,1,.28,1A.71.71,0,0,1,58.86,52.18Z"/><path class="cls-2" d="M40,68.7a3.5,3.5,0,1,1,3.5-3.5A3.5,3.5,0,0,1,40,68.7Zm0-5.6a2.1,2.1,0,1,0,2.1,2.1A2.1,2.1,0,0,0,40,63.1Z"/><path class="cls-2" d="M61.7,30.9a3.5,3.5,0,1,1,3.5-3.5A3.5,3.5,0,0,1,61.7,30.9Zm0-5.6a2.1,2.1,0,1,0,2.1,2.1A2.1,2.1,0,0,0,61.7,25.3Z"/><path class="cls-2" d="M61.7,56.1a3.5,3.5,0,1,1,3.5-3.5A3.5,3.5,0,0,1,61.7,56.1Zm0-5.6a2.1,2.1,0,1,0,2.1,2.1A2.1,2.1,0,0,0,61.7,50.5Z"/><path class="cls-2" d="M18.3,56.1a3.5,3.5,0,1,1,3.5-3.5A3.5,3.5,0,0,1,18.3,56.1Zm0-5.6a2.1,2.1,0,1,0,2.1,2.1A2.1,2.1,0,0,0,18.3,50.5Z"/><path class="cls-2" d="M18.3,30.9a3.5,3.5,0,1,1,3.5-3.5A3.5,3.5,0,0,1,18.3,30.9Zm0-5.6a2.1,2.1,0,1,0,2.1,2.1A2.1,2.1,0,0,0,18.3,25.3Z"/><path class="cls-2" d="M40,18.3a3.5,3.5,0,1,1,3.5-3.5A3.5,3.5,0,0,1,40,18.3Zm0-5.6a2.1,2.1,0,1,0,2.1,2.1A2.1,2.1,0,0,0,40,12.7Z"/></svg>