<svg id="Layer_1" data-name="Layer 1" xmlns="http://www.w3.org/2000/svg" viewBox="0 0 80 80"><defs><style>.cls-1{fill:#575756;}.cls-2{fill:#ba9764;}</style></defs><path class="cls-1" d="M40,80A40,40,0,1,1,80,40,40,40,0,0,1,40,80ZM40,1.17A38.83,38.83,0,1,0,78.83,40,38.88,38.88,0,0,0,40,1.17Z"/><path class="cls-1" d="M18.36,51.58a.76.76,0,0,1-.73-.54L15,42.43A.76.76,0,1,1,16.48,42l2.6,8.62a.75.75,0,0,1-.72,1Z"/><path class="cls-1" d="M21.88,52.87a.74.74,0,0,1-.36-.09.78.78,0,0,1-.37-.45l-3.9-12.92a.77.77,0,0,1,.51-.95l9.33-2.81a.75.75,0,0,1,.95.5l3.9,12.93a.76.76,0,0,1-.51.94L22.1,52.84A.83.83,0,0,1,21.88,52.87Zm-3-13.18,3.46,11.48,7.89-2.38L26.81,37.31Z"/><path class="cls-1" d="M51.83,50.88h0l-20.62-.83a.75.75,0,0,1-.69-.54l-3.9-12.92a.76.76,0,0,1,.26-.82L43.35,23a.75.75,0,0,1,.69-.12.74.74,0,0,1,.5.5l8,26.56a.76.76,0,0,1-.73,1Zm-20-2.32,19,.76L43.41,24.83,28.19,36.65Z"/><path class="cls-1" d="M27.94,61a.76.76,0,0,1-.67-.41l-4.41-8.48a.76.76,0,1,1,1.34-.7l4.07,7.82L31,57.92,28.55,53a.75.75,0,0,1,.35-1,.76.76,0,0,1,1,.35l2.73,5.6a.75.75,0,0,1-.34,1l-4,2A.68.68,0,0,1,27.94,61Z"/><path class="cls-2" d="M51,28.45a.81.81,0,0,1-.42-.12.77.77,0,0,1-.21-1l5.22-8a.75.75,0,1,1,1.26.83l-5.22,8A.75.75,0,0,1,51,28.45Z"/><path class="cls-2" d="M53.15,35.7a.76.76,0,0,1-.22-1.48l7.72-2.33a.76.76,0,0,1,.94.51.76.76,0,0,1-.51.94l-7.71,2.33Z"/><path class="cls-2" d="M64.24,47.18a.72.72,0,0,1-.29-.06l-8.77-3.76A.76.76,0,0,1,55.77,42l8.77,3.76a.76.76,0,0,1-.3,1.45Z"/></svg>