<svg id="Layer_1" data-name="Layer 1" xmlns="http://www.w3.org/2000/svg" xmlns:xlink="http://www.w3.org/1999/xlink" viewBox="0 0 60 60"><defs><style>.cls-1{fill:none;}.cls-2{fill:#2b556b;}.cls-3{clip-path:url(#clip-path);}.cls-4{opacity:0.85;}.cls-5{clip-path:url(#clip-path-3);}.cls-6{fill:#fff;}</style><clipPath id="clip-path"><rect class="cls-1" x="12.46" y="11.74" width="35.09" height="36.51"/></clipPath><clipPath id="clip-path-3"><rect class="cls-1" x="-1.23" y="1.28" width="62.46" height="47.78"/></clipPath></defs><rect class="cls-2" width="60" height="60"/><g class="cls-3"><g class="cls-3"><g class="cls-4"><g class="cls-5"><polygon class="cls-6" points="24.78 48.26 23.84 48.26 23.84 44.46 22.89 44.46 22.89 43.51 24.78 43.51 24.78 48.26"/><polygon class="cls-6" points="36.16 48.26 35.22 48.26 35.22 43.51 37.11 43.51 37.11 44.46 36.16 44.46 36.16 48.26"/><path class="cls-6" d="M39.48,48.26h-.95V42.57c0-3.27-2.29-6.64-6.13-6.64H27.6c-3.84,0-6.14,3.37-6.14,6.64v5.69h-.94V42.57c0-4.26,3.11-7.59,7.08-7.59h4.8c4,0,7.08,3.33,7.08,7.59Z"/><path class="cls-6" d="M30,25.5c-1.95,0-3.32,1.56-3.32,3.79s1.37,3.79,3.32,3.79,3.32-1.56,3.32-3.79S32,25.5,30,25.5M30,34c-2.47,0-4.27-2-4.27-4.74s1.8-4.74,4.27-4.74,4.27,2,4.27,4.74S32.47,34,30,34"/><rect class="cls-6" x="29.53" y="40.67" width="0.95" height="0.95"/><rect class="cls-6" x="29.53" y="43.99" width="0.95" height="0.95"/><rect class="cls-6" x="29.53" y="47.31" width="0.95" height="0.95"/><path class="cls-6" d="M30,12.69a1.43,1.43,0,1,0,1.42,1.43A1.43,1.43,0,0,0,30,12.69m0,3.8a2.38,2.38,0,1,1,2.37-2.37A2.38,2.38,0,0,1,30,16.49"/><rect class="cls-6" x="29.53" y="16.01" width="0.95" height="6.16"/><path class="cls-6" d="M14.83,19.09a1.57,1.57,0,0,0-.37.05,1.43,1.43,0,1,0,1.74,1,1.37,1.37,0,0,0-.66-.86h0a1.48,1.48,0,0,0-.71-.19m0,3.8a2.38,2.38,0,0,1-1.18-.32A2.37,2.37,0,0,1,16,18.46h0a2.39,2.39,0,0,1,1.11,1.44,2.36,2.36,0,0,1-.24,1.8,2.39,2.39,0,0,1-1.44,1.11,2.57,2.57,0,0,1-.62.08"/><rect class="cls-6" x="18.66" y="19.92" width="0.95" height="6.16" transform="translate(-10.35 28.08) rotate(-60)"/><path class="cls-6" d="M45.17,19.09a1.48,1.48,0,0,0-.71.19h0a1.37,1.37,0,0,0-.66.86,1.41,1.41,0,0,0,.14,1.08,1.42,1.42,0,0,0,.86.66,1.4,1.4,0,0,0,1.08-.14,1.43,1.43,0,0,0-.34-2.61,1.57,1.57,0,0,0-.37-.05m0,3.8a2.57,2.57,0,0,1-.62-.08,2.39,2.39,0,0,1-1.44-1.11,2.36,2.36,0,0,1-.24-1.8A2.39,2.39,0,0,1,44,18.46h0a2.37,2.37,0,1,1,1.19,4.43"/><rect class="cls-6" x="37.78" y="22.53" width="6.16" height="0.95" transform="translate(-6.03 23.52) rotate(-30)"/><path class="cls-6" d="M45.17,36.16a1.64,1.64,0,0,0-.37.05,1.44,1.44,0,0,0-.86.67A1.38,1.38,0,0,0,43.8,38a1.41,1.41,0,0,0,1.74,1,1.4,1.4,0,0,0,.86-.66,1.41,1.41,0,0,0-.52-1.94,1.39,1.39,0,0,0-.71-.2m0,3.8A2.35,2.35,0,0,1,44,39.64a2.39,2.39,0,0,1-1.11-1.44,2.37,2.37,0,1,1,4.35.57,2.39,2.39,0,0,1-1.44,1.11,2.7,2.7,0,0,1-.62.08"/><rect class="cls-6" x="40.39" y="32.02" width="0.95" height="6.16" transform="matrix(0.5, -0.87, 0.87, 0.5, -9.97, 52.93)"/><path class="cls-6" d="M14.83,36.16a1.39,1.39,0,0,0-.71.2,1.41,1.41,0,0,0-.52,1.94,1.42,1.42,0,0,0,1.94.52A1.42,1.42,0,0,0,16.2,38a1.38,1.38,0,0,0-.14-1.07,1.44,1.44,0,0,0-.86-.67,1.64,1.64,0,0,0-.37-.05m0,3.8a2.7,2.7,0,0,1-.62-.08,2.39,2.39,0,0,1-1.44-1.11,2.37,2.37,0,1,1,4.35-.57A2.39,2.39,0,0,1,16,39.64a2.35,2.35,0,0,1-1.18.32"/><rect class="cls-6" x="16.06" y="34.62" width="6.16" height="0.95" transform="translate(-14.99 14.27) rotate(-30)"/><rect class="cls-6" x="14.35" y="24.07" width="0.95" height="9.96"/><rect class="cls-6" x="44.74" y="24.07" width="0.95" height="9.96"/><rect class="cls-6" x="37.27" y="12.48" width="0.95" height="9.53" transform="translate(7.66 45.82) rotate(-68.09)"/><rect class="cls-6" x="17.82" y="16.68" width="9.2" height="0.95" transform="translate(-4.75 9.49) rotate(-21.67)"/></g></g></g></g></svg>