<svg id="Layer_1" data-name="Layer 1" xmlns="http://www.w3.org/2000/svg" xmlns:xlink="http://www.w3.org/1999/xlink" viewBox="0 0 60 60"><defs><style>.cls-1{fill:none;}.cls-2{fill:#bbaea5;}.cls-3{clip-path:url(#clip-path);}.cls-4{opacity:0.85;}.cls-5{clip-path:url(#clip-path-3);}.cls-6{fill:#fff;}</style><clipPath id="clip-path"><rect class="cls-1" x="6.04" y="13.71" width="47.92" height="32.59"/></clipPath><clipPath id="clip-path-3"><rect class="cls-1" x="-7.64" y="3.24" width="75.29" height="43.86"/></clipPath></defs><rect class="cls-2" width="60" height="60"/><g class="cls-3"><g class="cls-3"><g class="cls-4"><g class="cls-5"><path class="cls-6" d="M25,34a.51.51,0,0,1-.48-.36l-1.61-5.33a.5.5,0,0,1,.34-.63.5.5,0,0,1,.62.34l1.61,5.34a.5.5,0,0,1-.33.62L25,34"/><path class="cls-6" d="M25.42,26.6l2.13,7,4.82-1.45-2.12-7.05Zm1.79,8.18a.49.49,0,0,1-.47-.36l-2.42-8a.47.47,0,0,1,0-.38.53.53,0,0,1,.29-.24l5.79-1.74a.5.5,0,0,1,.38,0,.55.55,0,0,1,.24.3l2.41,8a.5.5,0,0,1,0,.38.51.51,0,0,1-.3.24l-5.78,1.75-.15,0"/><path class="cls-6" d="M33.37,32.05l11.72.47L40.54,17.43l-9.38,7.28Zm12.4,1.49h0L33,33a.5.5,0,0,1-.46-.35l-2.42-8a.51.51,0,0,1,.17-.54L40.5,16.19a.49.49,0,0,1,.45-.08.5.5,0,0,1,.33.33l5,16.46a.51.51,0,0,1-.08.45.53.53,0,0,1-.4.19"/><path class="cls-6" d="M31,39.84a.5.5,0,0,1-.44-.27L27.8,34.32a.5.5,0,1,1,.88-.46l2.51,4.81,1.6-.81-1.47-3a.5.5,0,0,1,.23-.67.49.49,0,0,1,.66.23l1.7,3.47a.49.49,0,0,1-.23.66L31.2,39.79a.64.64,0,0,1-.23.05"/><path class="cls-6" d="M45.23,19.65a.5.5,0,0,1-.27-.08.49.49,0,0,1-.15-.69l3.24-4.95a.5.5,0,0,1,.83.55l-3.23,4.94a.51.51,0,0,1-.42.23"/><path class="cls-6" d="M46.58,24.14a.49.49,0,0,1-.47-.35.51.51,0,0,1,.33-.63l4.78-1.44a.5.5,0,0,1,.63.34.5.5,0,0,1-.34.62l-4.78,1.44a.39.39,0,0,1-.15,0"/><path class="cls-6" d="M53.46,31.25a.48.48,0,0,1-.2,0l-5.43-2.33a.5.5,0,1,1,.4-.91l5.43,2.33a.49.49,0,0,1,.26.65.5.5,0,0,1-.46.3"/><path class="cls-6" d="M12.56,37.71a.51.51,0,0,1-.44-.25,11.46,11.46,0,0,1,9.94-17.15,11.31,11.31,0,0,1,7,2.36.5.5,0,1,1-.6.8,10.33,10.33,0,0,0-6.37-2.17A10.47,10.47,0,0,0,13,37a.51.51,0,0,1-.18.69.57.57,0,0,1-.25.06"/><path class="cls-6" d="M22.06,43.21A11.4,11.4,0,0,1,13.16,39a.51.51,0,0,1,.07-.71.5.5,0,0,1,.7.08,10.45,10.45,0,0,0,15,1.31.51.51,0,0,1,.71.05.49.49,0,0,1-.05.7,11.42,11.42,0,0,1-7.52,2.81"/><path class="cls-6" d="M19,33.93a.49.49,0,0,1-.44-.26,4,4,0,0,1-.48-1.91,4,4,0,0,1,3.19-3.92.5.5,0,1,1,.2,1,3,3,0,0,0-2.39,3,3,3,0,0,0,.36,1.43.5.5,0,0,1-.2.68.53.53,0,0,1-.24.06"/><path class="cls-6" d="M22.06,35.76A4,4,0,0,1,20,35.18a.5.5,0,0,1,.52-.85,3.06,3.06,0,0,0,2.73.2.49.49,0,0,1,.65.26.5.5,0,0,1-.26.66,4,4,0,0,1-1.56.31"/><path class="cls-6" d="M15.61,36a.5.5,0,0,1-.43-.25,7.95,7.95,0,0,1,6.88-11.93,8.7,8.7,0,0,1,1.61.16.51.51,0,0,1,.39.59.5.5,0,0,1-.59.39,7.33,7.33,0,0,0-1.41-.14,7,7,0,0,0-6,10.43.49.49,0,0,1-.18.68.45.45,0,0,1-.25.07"/><path class="cls-6" d="M22.06,39.71a7.89,7.89,0,0,1-5.77-2.48.5.5,0,1,1,.73-.69,6.95,6.95,0,0,0,10.06,0,.5.5,0,1,1,.72.69,7.87,7.87,0,0,1-5.74,2.45"/><path class="cls-6" d="M16.32,46.29a1.82,1.82,0,0,1-.91-.24,1.76,1.76,0,0,1-.84-1.1,1.8,1.8,0,0,1,.18-1.38L16.22,41a.5.5,0,1,1,.86.5l-1.46,2.54a.84.84,0,0,0-.09.62.82.82,0,0,0,.38.49.84.84,0,0,0,.62.09.83.83,0,0,0,.5-.38l.8-1.31a.49.49,0,0,1,.68-.17.5.5,0,0,1,.17.69l-.79,1.3a1.78,1.78,0,0,1-1.1.83,1.89,1.89,0,0,1-.47.06"/><path class="cls-6" d="M28.06,46.29a1.84,1.84,0,0,1-.47-.06,1.81,1.81,0,0,1-1.11-.84L25.7,44.1a.5.5,0,1,1,.85-.52l.79,1.3a.8.8,0,0,0,1.12.3.75.75,0,0,0,.38-.49.79.79,0,0,0-.08-.62l-1.47-2.54a.51.51,0,0,1,.19-.68.49.49,0,0,1,.68.18l1.47,2.54A1.84,1.84,0,0,1,29.81,45a1.82,1.82,0,0,1-1.75,1.34"/><path class="cls-6" d="M7.55,38.18l1.22.68,1.65-1L9.2,37.23Zm1.22,1.75a.53.53,0,0,1-.24-.06L6.3,38.63A.51.51,0,0,1,6,38.19a.48.48,0,0,1,.25-.43L9,36.22a.5.5,0,0,1,.49,0l2.23,1.24a.49.49,0,0,1,.26.43.5.5,0,0,1-.25.44L9,39.86a.43.43,0,0,1-.25.07"/><path class="cls-6" d="M9.27,39.72l0,1.39,1.65-1,0-1.39Zm-.54,2.76a.45.45,0,0,1-.25-.07A.48.48,0,0,1,8.23,42l0-2.56A.51.51,0,0,1,8.52,39l2.66-1.54a.47.47,0,0,1,.5,0,.48.48,0,0,1,.25.43l0,2.56a.5.5,0,0,1-.25.42L9,42.42a.54.54,0,0,1-.25.06"/><path class="cls-6" d="M7.64,40.59a.5.5,0,0,1-.25-.94l14.42-8.32a.5.5,0,1,1,.5.86L7.89,40.52a.59.59,0,0,1-.25.07"/></g></g></g></g></svg>