<svg id="Layer_1" data-name="Layer 1" xmlns="http://www.w3.org/2000/svg" xmlns:xlink="http://www.w3.org/1999/xlink" viewBox="0 0 60 60"><defs><style>.cls-1{fill:none;}.cls-2{fill:#628196;}.cls-3{clip-path:url(#clip-path);}.cls-4{clip-path:url(#clip-path-2);}.cls-5{opacity:0.85;}.cls-6{clip-path:url(#clip-path-3);}.cls-7{fill:#fff;}</style><clipPath id="clip-path"><rect class="cls-1" x="12.54" y="11.74" width="34.93" height="36.51"/></clipPath><clipPath id="clip-path-2"><rect class="cls-1" x="12.54" y="11.75" width="34.93" height="36.51"/></clipPath><clipPath id="clip-path-3"><rect class="cls-1" x="-1.15" y="1.28" width="62.3" height="47.78"/></clipPath></defs><rect class="cls-2" width="60" height="60"/><g class="cls-3"><g class="cls-4"><g class="cls-5"><g class="cls-6"><path class="cls-7" d="M28.86,48.26c-8.53,0-16.3-3.41-16.3-7.14a.56.56,0,0,1,.55-.56.55.55,0,0,1,.55.56c0,2.4,6.06,6,15.2,6h.34l-.05-3.25h-.29c-8.53,0-16.3-3.4-16.3-7.14,0-3.49,7.16-6.23,16.3-6.23a35.14,35.14,0,0,1,7.57.85.55.55,0,0,1-.24,1.08,34.12,34.12,0,0,0-7.33-.83c-9.09,0-15.2,2.65-15.2,5.13s6.06,6,15.2,6h.82a.6.6,0,0,1,.39.16.52.52,0,0,1,.17.39l.07,4.34a.55.55,0,0,1-.54.57h-.91"/><path class="cls-7" d="M28.93,48.26a.56.56,0,0,1,0-1.11l1.36,0a.54.54,0,0,1,.58.53.56.56,0,0,1-.54.57c-.46,0-.92,0-1.4,0"/><path class="cls-7" d="M33.06,48a.55.55,0,0,1-.06-1.1c.92-.1,1.82-.24,2.67-.4a.56.56,0,0,1,.65.44.54.54,0,0,1-.44.64c-.88.18-1.81.31-2.76.42h-.06"/><path class="cls-7" d="M38.45,47a.55.55,0,0,1-.16-1.08c.44-.13.87-.28,1.28-.43a.55.55,0,0,1,.71.32.56.56,0,0,1-.32.72q-.65.24-1.35.45l-.16,0"/><path class="cls-7" d="M42,44.43a.55.55,0,0,1-.22-1.06c1.57-.67,2.36-1.44,2.36-2.29s0-1.52,0-2.21c0-1,0-1.85,0-2.13a.56.56,0,0,1,.51-.6.55.55,0,0,1,.59.51c0,.33,0,1.17,0,2.23,0,.68,0,1.45,0,2.2,0,1.33-1,2.45-3,3.31a.57.57,0,0,1-.22,0"/><path class="cls-7" d="M31.35,37.05l10.59,2.4c1.42-.76,2.19-1.67,2.2-2.56,0-1.39-1.88-2.8-4.83-3.61ZM42,40.59l-.12,0L29.54,37.78a.58.58,0,0,1-.43-.48.55.55,0,0,1,.32-.56L39,32.2a.53.53,0,0,1,.37,0c3.66,1,5.85,2.73,5.84,4.73,0,1.37-1.06,2.66-3,3.64a.57.57,0,0,1-.25.06"/><rect class="cls-7" x="12.54" y="36.76" width="1.11" height="4.3"/><path class="cls-7" d="M42,44.4h-.13L29.53,41.47a.56.56,0,0,1-.42-.54V37.24a.56.56,0,0,1,.55-.56.55.55,0,0,1,.55.56V40.5l11.24,2.65V40.07a.54.54,0,0,1,.55-.55.55.55,0,0,1,.55.55v3.78a.52.52,0,0,1-.21.43.54.54,0,0,1-.34.12"/><path class="cls-7" d="M35.86,28.87a.55.55,0,0,1-.55-.55v-5a.55.55,0,0,1,.55-.55.55.55,0,0,1,.55.55v5a.55.55,0,0,1-.55.55"/><path class="cls-7" d="M32.54,25.55A.55.55,0,0,1,32,25V23.89H30.33a.55.55,0,0,1-.41-.91l3.86-4.42a.58.58,0,0,1,.84,0L38.48,23a.53.53,0,0,1,.09.59.55.55,0,0,1-.5.32H35.3a.55.55,0,0,1-.55-.55.55.55,0,0,1,.55-.55h1.55l-2.65-3-2.65,3h1a.55.55,0,0,1,.55.55V25a.55.55,0,0,1-.55.55"/><path class="cls-7" d="M44.7,32.16a.55.55,0,0,1-.55-.56V16.71a.54.54,0,0,1,.55-.55.55.55,0,0,1,.55.55V31.6a.56.56,0,0,1-.55.56"/><path class="cls-7" d="M41.38,26.66a.55.55,0,0,1-.55-.55v-.56a.56.56,0,0,1,1.11,0v.56a.56.56,0,0,1-.56.55"/><path class="cls-7" d="M41.38,29.42a.55.55,0,0,1-.55-.55v-.55a.56.56,0,1,1,1.11,0v.55a.56.56,0,0,1-.56.55"/><path class="cls-7" d="M41.38,23.89a.55.55,0,0,1-.55-.55v-.55a.56.56,0,0,1,1.11,0v.55a.55.55,0,0,1-.56.55"/><path class="cls-7" d="M32.55,28.59A.56.56,0,0,1,32,28v-.55a.56.56,0,1,1,1.11,0V28a.55.55,0,0,1-.55.55"/><path class="cls-7" d="M41.38,21.13a.55.55,0,0,1-.55-.55V17.26H39.17a.55.55,0,0,1-.5-.32.53.53,0,0,1,.09-.59l3.87-4.42a.55.55,0,0,1,.83,0l3.87,4.42a.55.55,0,0,1,.08.59.54.54,0,0,1-.5.32H44.15a.55.55,0,1,1,0-1.1h1.54l-2.65-3-2.65,3h1a.55.55,0,0,1,.56.55v3.87a.56.56,0,0,1-.56.55"/></g></g></g></g></svg>