<svg id="Layer_1" data-name="Layer 1" xmlns="http://www.w3.org/2000/svg" viewBox="0 0 87.86 90"><defs><style>.cls-1{fill:#575756;}.cls-2{fill:#ba9764;}</style></defs><path class="cls-1" d="M55.85,90a1.29,1.29,0,0,1-1.29-1.29V77.52a1.29,1.29,0,0,1,1.29-1.29h15a5.52,5.52,0,0,0,5.52-5.52V57.1a1.29,1.29,0,0,1,1.29-1.29h7.64l-9-26a1.23,1.23,0,0,1-.07-.32C75.07,15.31,64.25,4,50.5,2.71a28.41,28.41,0,0,0-22,7.31A28.77,28.77,0,0,0,19,31.24a1.29,1.29,0,0,1-2.57,0A31.28,31.28,0,0,1,26.73,8.12a30.9,30.9,0,0,1,24-8c14.93,1.45,26.7,13.62,28,29l8.92,25.8a2.57,2.57,0,0,1-2.43,3.46H78.91V70.71a8.1,8.1,0,0,1-8.09,8.09H57.13v9.91A1.28,1.28,0,0,1,55.85,90Z"/><path class="cls-1" d="M17.73,90a1.28,1.28,0,0,1-1.28-1.29V58.82a1.29,1.29,0,0,1,2.57,0V88.71A1.29,1.29,0,0,1,17.73,90Z"/><path class="cls-1" d="M37,65.44c-9.52,0-22.32-6.76-24.51-8l-8.07.06a1.27,1.27,0,0,1-1.3-1.27A1.3,1.3,0,0,1,4.43,55l8.41-.06a1.34,1.34,0,0,1,.63.16c.17.1,17,9.46,26.25,7.55,4.52-.91,11.44-3.09,12.56-4,2.56-2,9.57-8,11.72-12a4,4,0,0,0-1.77-.49,4.59,4.59,0,0,0-3.55,1.14c0,.06-7.11,7.3-8.69,8-4.36,1.95-6.34,1.69-11.61,1L35.82,56a1.1,1.1,0,0,1-.26-.06c-.1,0-2.4-.85-4-1.53a1.29,1.29,0,1,1,1-2.37c1.32.57,3.22,1.25,3.72,1.43l2.44.32c5.14.68,6.52.87,10.22-.79.94-.5,6.43-5.89,7.89-7.44a7.3,7.3,0,0,1,8.86-.82,2.23,2.23,0,0,1,.63,3.06C63.66,52.94,54,60.59,53.87,60.67,52,62.12,44,64.38,40.23,65.14A16.48,16.48,0,0,1,37,65.44Zm27.06-19Z"/><path class="cls-1" d="M37.86,56l-1.35,0h-.22a1.29,1.29,0,0,1,.06-2.57h.22c2.13,0,7.13.17,7.34-2.27.19-1.32-4-2.23-7.12-2.89-1.35-.28-2.74-.58-4.09-.94-3.9-.81-5.3-1.87-7.83-3.81-1-.8-2.34-1.78-4.13-3a7.73,7.73,0,0,0-6.1-1.3c-3.85.93-6.27,5-6.29,5.1A1.3,1.3,0,0,1,7.26,45l-3,.06a1.29,1.29,0,0,1,0-2.57l2.32,0c1-1.41,3.56-4.72,7.49-5.68a10.18,10.18,0,0,1,8.14,1.64c1.89,1.28,3.21,2.29,4.28,3.11,2.45,1.87,3.46,2.64,6.86,3.35,1.35.36,2.71.65,4,.93,5,1.06,9.68,2.07,9.14,5.7C46.1,55.57,41.06,56,37.86,56Z"/><path class="cls-1" d="M4.23,60.7H1.29a1.29,1.29,0,1,1,0-2.57H2.94V43.05H1.29a1.29,1.29,0,1,1,0-2.57H4.23a1.28,1.28,0,0,1,1.28,1.28V59.41A1.28,1.28,0,0,1,4.23,60.7Z"/><path class="cls-2" d="M45.48,42.81a1.3,1.3,0,0,1-.6-.15c-.59-.32-14.43-7.82-14.54-17.5a8.64,8.64,0,0,1,2.52-6.22,8.85,8.85,0,0,1,6.32-2.64c2.64,0,4.85,2,6.3,3.76,1.46-1.79,3.67-3.76,6.3-3.76a8.86,8.86,0,0,1,8.85,8.84c0,9.91-14,17.22-14.56,17.52A1.2,1.2,0,0,1,45.48,42.81Zm-6.3-23.94a6.27,6.27,0,0,0-4.49,1.87,6.1,6.1,0,0,0-1.78,4.39c.08,7.16,10,13.42,12.58,14.92,2.58-1.46,12.57-7.6,12.57-14.91a6.28,6.28,0,0,0-6.28-6.27c-2.28,0-4.41,2.84-5.23,4.07a1.27,1.27,0,0,1-1.07.57h0a1.28,1.28,0,0,1-1.07-.57C43.6,21.71,41.47,18.87,39.18,18.87Z"/></svg>