<svg id="Layer_1" data-name="Layer 1" xmlns="http://www.w3.org/2000/svg" viewBox="0 0 104.06 90"><defs><style>.cls-1{fill:#575756;}.cls-2{fill:#ba9764;}</style></defs><path class="cls-1" d="M35.09,35.77a1.38,1.38,0,0,1-1-.42L31.8,33.06a1.41,1.41,0,0,1,2-2l2.28,2.3a1.41,1.41,0,0,1-1,2.4Z"/><path class="cls-1" d="M32.48,44.06a1.37,1.37,0,0,1-1-.42L26.36,38.5a1.41,1.41,0,0,1,2-2l5.12,5.14a1.41,1.41,0,0,1,0,2A1.44,1.44,0,0,1,32.48,44.06Z"/><path class="cls-1" d="M27.89,50.26a1.37,1.37,0,0,1-1-.42L13.3,36.22A16.58,16.58,0,0,1,8.44,24.74l-8-8.15a1.41,1.41,0,1,1,2-2l8.44,8.57a1.39,1.39,0,0,1,.4,1,13.81,13.81,0,0,0,4,10.05l13.6,13.62a1.42,1.42,0,0,1,0,2A1.4,1.4,0,0,1,27.89,50.26Z"/><path class="cls-1" d="M47.25,26.37a1.41,1.41,0,0,1-1-.43l-6.88-7.2a1.41,1.41,0,0,1,1.18-2.37l7.5.89a2.18,2.18,0,0,0,2.43-1.91l.06-.51a2.19,2.19,0,0,0-1.91-2.43L29.22,10.09a17.86,17.86,0,0,0-6.2.15,1.43,1.43,0,0,1-1.29-.39L14.39,2.39a1.41,1.41,0,0,1,2-2l6.82,6.92a20.79,20.79,0,0,1,6.4,0l19.32,2.3a5,5,0,0,1,4.37,5.56l-.06.51a5,5,0,0,1-5.55,4.38l-3.61-.43L48.27,24a1.42,1.42,0,0,1-.05,2A1.39,1.39,0,0,1,47.25,26.37Z"/><path class="cls-1" d="M40,29.8a1.44,1.44,0,0,1-1-.41l-1.77-1.78a1.4,1.4,0,1,1,2-2L41,27.4a1.41,1.41,0,0,1-1,2.4Z"/><path class="cls-1" d="M70.2,34.22a1.4,1.4,0,0,1-1-2.41l1.27-1.24a1.41,1.41,0,0,1,2,2l-1.27,1.23A1.38,1.38,0,0,1,70.2,34.22Z"/><path class="cls-1" d="M75.65,39.67a1.41,1.41,0,0,1-1-2.41L75.93,36a1.41,1.41,0,0,1,2,2l-1.26,1.24A1.39,1.39,0,0,1,75.65,39.67Z"/><path class="cls-1" d="M76.17,50.26a1.4,1.4,0,0,1-1-.41,1.42,1.42,0,0,1,0-2l13.6-13.62a13.81,13.81,0,0,0,4-10,1.39,1.39,0,0,1,.4-1l8.44-8.57a1.41,1.41,0,0,1,2,2l-8,8.15a16.58,16.58,0,0,1-4.86,11.48L77.17,49.84A1.41,1.41,0,0,1,76.17,50.26Z"/><path class="cls-1" d="M56.39,26.37a1.41,1.41,0,0,1-1-2.41l4.38-4.31-3.42.41a5,5,0,0,1-5.55-4.38l-.06-.51a5,5,0,0,1,4.37-5.56L74.31,7.32a21.3,21.3,0,0,1,6.53,0L87.66.42a1.41,1.41,0,0,1,2,2L82.33,9.85a1.43,1.43,0,0,1-1.29.39,17.86,17.86,0,0,0-6.2-.15l-.2,0L55.45,12.41a2.19,2.19,0,0,0-1.91,2.43l.07.51a2.12,2.12,0,0,0,.82,1.46,2.15,2.15,0,0,0,1.6.45l7.5-.89a1.41,1.41,0,0,1,1.15,2.4L57.38,26A1.41,1.41,0,0,1,56.39,26.37Z"/><path class="cls-1" d="M64.7,28.88a1.4,1.4,0,0,1-1-.41,1.42,1.42,0,0,1,0-2L65,25.14a1.41,1.41,0,0,1,2,2L65.7,28.46A1.41,1.41,0,0,1,64.7,28.88Z"/><path class="cls-2" d="M70.77,55.24a1.4,1.4,0,0,1-1.41-1.4l-.07-11.62a2.51,2.51,0,0,0-2.45-2.51h0a2.36,2.36,0,0,0-1.66.69,2.44,2.44,0,0,0-.71,1.75l.07,11.63a1.4,1.4,0,0,1-1.4,1.41h0a1.4,1.4,0,0,1-1.4-1.39l-.07-11.63a5.23,5.23,0,0,1,1.53-3.76,4.9,4.9,0,0,1,3.68-1.51,5.32,5.32,0,0,1,5.24,5.3l.07,11.63a1.4,1.4,0,0,1-1.4,1.41Z"/><path class="cls-2" d="M63.12,55.19a1.4,1.4,0,0,1-1.4-1.39l-.11-17.45a2.5,2.5,0,0,0-2.45-2.5h0a2.33,2.33,0,0,0-1.65.69,2.45,2.45,0,0,0-.72,1.75l.11,17.44a1.41,1.41,0,0,1-1.4,1.42h0a1.4,1.4,0,0,1-1.4-1.4L54,36.31a5.22,5.22,0,0,1,1.54-3.76A5.13,5.13,0,0,1,59.15,31h0a5.32,5.32,0,0,1,5.24,5.3l.11,17.44a1.4,1.4,0,0,1-1.4,1.41Z"/><path class="cls-2" d="M55.48,55.15a1.4,1.4,0,0,1-1.4-1.4L54,32.43a2.5,2.5,0,0,0-2.45-2.5h0a2.29,2.29,0,0,0-1.65.69,2.4,2.4,0,0,0-.71,1.74l.13,21.32a1.41,1.41,0,0,1-1.4,1.42h0a1.42,1.42,0,0,1-1.41-1.4L46.3,32.38a5.21,5.21,0,0,1,1.54-3.75,4.92,4.92,0,0,1,3.68-1.52,5.33,5.33,0,0,1,5.24,5.3l.13,21.32a1.41,1.41,0,0,1-1.4,1.42Z"/><path class="cls-2" d="M66.27,90a1.41,1.41,0,0,1-1.41-1.41V76.48a1.46,1.46,0,0,1,.42-1,13.79,13.79,0,0,0,4.15-10l-.12-19.38a1.4,1.4,0,0,1,1.4-1.41h0a1.4,1.4,0,0,1,1.4,1.39l.12,19.39a16.6,16.6,0,0,1-4.56,11.6V88.59A1.41,1.41,0,0,1,66.27,90Z"/><path class="cls-2" d="M46.48,90h0a1.41,1.41,0,0,1-1.4-1.41v-9.8a21.71,21.71,0,0,1-4.56-4.57L28.47,58.72a5.06,5.06,0,0,1,.79-7l.4-.31a5,5,0,0,1,7,.87L38.8,55l-.11-18.78a5.2,5.2,0,0,1,1.53-3.75,4.88,4.88,0,0,1,3.68-1.52,5.33,5.33,0,0,1,5.24,5.3l.11,13.22a1.41,1.41,0,0,1-1.4,1.42,1.38,1.38,0,0,1-1.42-1.4l-.1-13.22a2.51,2.51,0,0,0-2.45-2.51h0a2.36,2.36,0,0,0-1.66.69,2.44,2.44,0,0,0-.71,1.75l.14,22.92a1.41,1.41,0,0,1-2.52.87l-4.68-6A2.18,2.18,0,0,0,33,53.13a2,2,0,0,0-1.55.44l-.4.31A2.25,2.25,0,0,0,30.68,57l12.1,15.54a18.35,18.35,0,0,0,4.5,4.35,1.43,1.43,0,0,1,.62,1.17V88.59A1.41,1.41,0,0,1,46.48,90Z"/></svg>