<svg id="Layer_1" data-name="Layer 1" xmlns="http://www.w3.org/2000/svg" viewBox="0 0 87.9 90"><defs><style>.cls-1{fill:#575756;}.cls-2{fill:#ba9764;}</style></defs><path class="cls-1" d="M44.87,52c-5.14,0-8.59-3.94-8.59-9.81s3.45-9.8,8.59-9.8,8.58,3.94,8.58,9.8S50,52,44.87,52Zm0-17.16c-4.53,0-6.13,4-6.13,7.35s1.6,7.36,6.13,7.36,6.13-4,6.13-7.36S49.39,34.83,44.87,34.83Z"/><path class="cls-1" d="M55.9,90a1.22,1.22,0,0,1-1.22-1.23V81.42a1.23,1.23,0,1,1,2.45,0v7.35A1.23,1.23,0,0,1,55.9,90Z"/><path class="cls-1" d="M33.83,90a1.23,1.23,0,0,1-1.22-1.23V81.42a1.23,1.23,0,1,1,2.45,0v7.35A1.23,1.23,0,0,1,33.83,90Z"/><path class="cls-1" d="M46.09,56.9H43.64a1.23,1.23,0,1,1,0-2.45h2.45a1.23,1.23,0,1,1,0,2.45Z"/><path class="cls-1" d="M44.87,70.38a1.23,1.23,0,0,1-1.23-1.22V55.67a1.23,1.23,0,0,1,2.45,0V69.16A1.22,1.22,0,0,1,44.87,70.38Z"/><path class="cls-1" d="M59.41,81.52H50.3a12.84,12.84,0,0,1-3.3-.61l-.16,0-7.05.57H27.86a5.54,5.54,0,0,1-4.12-1.77,3.78,3.78,0,0,1-.9-3l2.55-14.21c.89-4.38,5.75-8,10.62-8h1.5a1.23,1.23,0,0,1,1.12.72L44.91,69.1l6.2-13.93a1.21,1.21,0,0,1,1.11-.72h.88a9.81,9.81,0,0,1,9.41,8l1.92,14.26a3.52,3.52,0,0,1-.8,2.89A5.63,5.63,0,0,1,59.41,81.52ZM46.65,78.18a11.91,11.91,0,0,0,3.65.88h9.11a3.15,3.15,0,0,0,2.32-1,1,1,0,0,0,.28-.93L60.09,62.86a7.33,7.33,0,0,0-7-6H53l-6,13.21a2.44,2.44,0,0,1-4.35.08l-6-13.29H36c-3.72,0-7.56,2.82-8.21,6.05L25.26,77.1a1.28,1.28,0,0,0,.33,1.05,3.11,3.11,0,0,0,2.27.91H39.69l3.47-.28c-2.73-1.73-7.6-4.37-11.42-4a1.24,1.24,0,0,1-1-.4,1.22,1.22,0,0,1-.28-1.08l1.35-6.17a1.22,1.22,0,1,1,2.39.52l-1,4.67C39.05,72.68,45.71,77.48,46.65,78.18Z"/><path class="cls-1" d="M31.85,74.44a1.18,1.18,0,0,1-.71-.23,1.22,1.22,0,0,1-.28-1.71l1.48-2a2.92,2.92,0,0,1,3.33-1.25l4.82.9c1.31-.15,8.55-.86,13.61.73l-.35-3.64A1.23,1.23,0,1,1,56.19,67l.55,5.66a1.21,1.21,0,0,1-.54,1.14,1.24,1.24,0,0,1-1.26.06c-4.53-2.44-14.24-1.26-14.34-1.25a1.61,1.61,0,0,1-.38,0l-5.12-1-.26-.08c-.09,0-.35.14-.51.37l-1.48,2.06A1.23,1.23,0,0,1,31.85,74.44Z"/><path class="cls-2" d="M71.27,34.36a1.23,1.23,0,0,1-.92-.41,35.36,35.36,0,0,0-52.82,0,1.21,1.21,0,0,1-1.73.1,1.23,1.23,0,0,1-.1-1.73,37.8,37.8,0,0,1,56.48,0,1.22,1.22,0,0,1-.1,1.73A1.19,1.19,0,0,1,71.27,34.36Z"/><path class="cls-2" d="M43.84,12.26A6.13,6.13,0,1,1,50,6.13,6.14,6.14,0,0,1,43.84,12.26Zm0-9.81a3.68,3.68,0,1,0,3.68,3.68A3.68,3.68,0,0,0,43.84,2.45Z"/><path class="cls-2" d="M43.94,22.1a1.23,1.23,0,0,1-1.23-1.23V11.06a1.23,1.23,0,0,1,2.46,0v9.81A1.23,1.23,0,0,1,43.94,22.1Z"/><path class="cls-2" d="M6.13,29a6.13,6.13,0,1,1,4.33-10.46h0A6.13,6.13,0,0,1,6.13,29Zm0-9.8a3.67,3.67,0,1,0,2.6,1.07A3.66,3.66,0,0,0,6.13,19.15Z"/><path class="cls-2" d="M16.62,34.4a1.21,1.21,0,0,1-.86-.36L8.82,27.1a1.22,1.22,0,1,1,1.73-1.73l6.94,6.94a1.23,1.23,0,0,1-.87,2.09Z"/><path class="cls-2" d="M81.77,29a6.13,6.13,0,0,1-4.34-10.46h0A6.13,6.13,0,1,1,81.77,29Zm-2.6-8.73a3.68,3.68,0,1,0,5.2,0,3.67,3.67,0,0,0-5.2,0Z"/><path class="cls-2" d="M71.27,34.4a1.2,1.2,0,0,1-.86-.36,1.22,1.22,0,0,1,0-1.73l6.93-6.94a1.23,1.23,0,1,1,1.74,1.73L72.14,34A1.22,1.22,0,0,1,71.27,34.4Z"/></svg>