<svg id="Layer_1" data-name="Layer 1" xmlns="http://www.w3.org/2000/svg" viewBox="0 0 88.28 90"><defs><style>.cls-1{fill:#ba9764;}.cls-2{fill:#575756;}</style></defs><path class="cls-1" d="M17,67.66A1.35,1.35,0,0,1,15.85,67,29.86,29.86,0,0,1,45.18,22.41a1.36,1.36,0,0,1,1.21,1.51,1.38,1.38,0,0,1-1.52,1.21,26.59,26.59,0,0,0-3.1-.17A27.16,27.16,0,0,0,18.22,65.61a1.36,1.36,0,0,1-.5,1.87A1.41,1.41,0,0,1,17,67.66Z"/><path class="cls-1" d="M41.77,82A29.85,29.85,0,0,1,19.12,71.59,1.37,1.37,0,0,1,21.2,69.8a27.15,27.15,0,0,0,44.39-4.67A1.37,1.37,0,1,1,68,66.45,29.89,29.89,0,0,1,41.77,82Z"/><path class="cls-1" d="M41.77,62.59a10.44,10.44,0,0,1-5.44-1.52,1.37,1.37,0,1,1,1.42-2.34A7.73,7.73,0,1,0,35,55.79a1.37,1.37,0,0,1-2.41,1.31,10.5,10.5,0,1,1,9.23,5.49Z"/><path class="cls-1" d="M25,63.18a1.38,1.38,0,0,1-1.19-.68,20.76,20.76,0,0,1,18-31.16,21.32,21.32,0,0,1,3.83.35,1.37,1.37,0,1,1-.5,2.7,17.64,17.64,0,0,0-3.33-.31,18,18,0,0,0-15.6,27A1.37,1.37,0,0,1,25.68,63,1.45,1.45,0,0,1,25,63.18Z"/><path class="cls-1" d="M41.77,72.86a20.64,20.64,0,0,1-14.6-6,1.37,1.37,0,1,1,1.93-2,18,18,0,0,0,30.39-9.5,1.37,1.37,0,1,1,2.69.5A20.75,20.75,0,0,1,41.77,72.86Z"/><path class="cls-1" d="M26.83,90a4.84,4.84,0,0,1-2.39-.64,4.79,4.79,0,0,1-1.76-6.55L26.5,76.2a1.37,1.37,0,1,1,2.38,1.37l-3.82,6.61a2,2,0,0,0,.75,2.8,2,2,0,0,0,1.55.2,2.06,2.06,0,0,0,1.25-1l2.08-3.41A1.37,1.37,0,1,1,33,84.25L31,87.63a4.7,4.7,0,0,1-2.89,2.2A4.41,4.41,0,0,1,26.83,90Z"/><path class="cls-1" d="M57.38,90a4.79,4.79,0,0,1-4.16-2.4l-2-3.35a1.38,1.38,0,0,1,.46-1.89,1.37,1.37,0,0,1,1.88.46l2.07,3.38a2.05,2.05,0,1,0,3.57-2l-3.82-6.61a1.37,1.37,0,1,1,2.38-1.37l3.82,6.61A4.79,4.79,0,0,1,57.38,90Z"/><path class="cls-1" d="M7.19,73.43a1.34,1.34,0,0,1-.67-.17L.71,70A1.34,1.34,0,0,1,0,68.85a1.37,1.37,0,0,1,.69-1.2l6.91-4a1.41,1.41,0,0,1,1.35,0l5.82,3.23a1.38,1.38,0,0,1,0,2.39l-6.92,4A1.38,1.38,0,0,1,7.19,73.43Zm-3-4.62,3,1.68,4.15-2.4-3-1.67Z"/><path class="cls-1" d="M7.08,80.08a1.32,1.32,0,0,1-.7-.19,1.38,1.38,0,0,1-.68-1.2L5.81,72a1.4,1.4,0,0,1,.69-1.17l6.91-4a1.37,1.37,0,0,1,2.06,1.21l-.11,6.65a1.38,1.38,0,0,1-.68,1.17l-6.92,4A1.38,1.38,0,0,1,7.08,80.08Zm1.46-7.22,0,3.45,4.14-2.39.06-3.45Z"/><path class="cls-1" d="M4.22,75.14A1.35,1.35,0,0,1,3,74.46a1.37,1.37,0,0,1,.5-1.88L41.07,50.91a1.39,1.39,0,0,1,1.88.51,1.37,1.37,0,0,1-.51,1.87L4.91,75A1.32,1.32,0,0,1,4.22,75.14Z"/><path class="cls-2" d="M76.8,64.66q-.45,0-.9,0a10.33,10.33,0,0,1-5.78-2.92L70,61.52c-.56-.74-13.66-18.12-17.79-25.76-8.28-16,4.09-24.42,9.37-28l.21-.13c5-2.66,9.64-3.18,13.74-1.56,7,2.76,9.76,10.69,9.87,11a1.37,1.37,0,1,1-2.59.89c0-.07-2.51-7.09-8.3-9.36C71.15,7.32,67.33,7.8,63.09,10c-5.56,3.76-15.63,10.64-8.5,24.45C58.45,41.62,71,58.29,72.06,59.76a7.36,7.36,0,0,0,4.11,2.14,9.48,9.48,0,0,0,7.14-2.36A8.23,8.23,0,0,0,85.53,53a1.37,1.37,0,0,1,1.32-1.42,1.35,1.35,0,0,1,1.42,1.31,11,11,0,0,1-3,8.59A12.13,12.13,0,0,1,76.8,64.66Z"/><path class="cls-2" d="M79.31,37.58a5.47,5.47,0,0,1-5.8-5.64,4.46,4.46,0,0,1,.85-2.57,8.65,8.65,0,0,0,1.07-8.19,7.47,7.47,0,0,0-5.55-4.64,6.61,6.61,0,0,0-1-.15,6.07,6.07,0,0,0-4.64,1.87c-3.27,3.43-3,10.29-3,10.36A1.37,1.37,0,0,1,60,30.06a1.36,1.36,0,0,1-1.44-1.3c0-.33-.35-8.11,3.71-12.39a8.77,8.77,0,0,1,6.63-2.72,8.37,8.37,0,0,1,1.56.2A10.18,10.18,0,0,1,78,20.17,11.4,11.4,0,0,1,76.6,31a1.66,1.66,0,0,0-.35,1,2.74,2.74,0,0,0,3.06,2.9,1.37,1.37,0,1,1,0,2.74Z"/><path class="cls-2" d="M75.68,51a6.2,6.2,0,0,1-1.85-.28c-4.93-1.51-7.42-8.81-7.53-9.12a1.38,1.38,0,0,1,2.61-.87c.58,1.74,2.76,6.46,5.73,7.37,1.31.4,2.68,0,4.2-1.13a1.37,1.37,0,0,1,1.67,2.18A8,8,0,0,1,75.68,51Z"/><path class="cls-2" d="M77.16,70.18a1.37,1.37,0,0,1-1.37-1.37V63.32a1.37,1.37,0,0,1,2.74,0v5.49A1.37,1.37,0,0,1,77.16,70.18Z"/><path class="cls-2" d="M77.16,9.6a1.37,1.37,0,0,1-1.37-1.37V1.37a1.37,1.37,0,0,1,2.74,0V8.23A1.37,1.37,0,0,1,77.16,9.6Z"/></svg>