<svg id="Layer_1" data-name="Layer 1" xmlns="http://www.w3.org/2000/svg" viewBox="0 0 76.52 90"><defs><style>.cls-1{fill:#575756;}.cls-2{fill:#ba9764;}</style></defs><path class="cls-1" d="M61.81,68.18a.88.88,0,0,1-.68-.32.87.87,0,0,1,.13-1.23,36.17,36.17,0,0,0,3.35-3.09.88.88,0,0,1,1.24,0,.87.87,0,0,1,0,1.24A39.73,39.73,0,0,1,62.36,68,.88.88,0,0,1,61.81,68.18Z"/><path class="cls-1" d="M70.68,57.78a.88.88,0,0,1-.44-.12.87.87,0,0,1-.32-1.19,36.28,36.28,0,0,0,3.45-8.15.87.87,0,0,1,1.08-.6.86.86,0,0,1,.6,1.08,38,38,0,0,1-3.61,8.54A.88.88,0,0,1,70.68,57.78ZM4.82,55.89A.88.88,0,0,1,4,55.41,38.2,38.2,0,0,1,.92,46.68a.87.87,0,0,1,.66-1,.86.86,0,0,1,1,.66,36.15,36.15,0,0,0,3,8.33.88.88,0,0,1-.39,1.18A.89.89,0,0,1,4.82,55.89Zm70.81-15.4h0a.87.87,0,0,1-.84-.91c0-.43,0-.87,0-1.32A36.13,36.13,0,0,0,74,30.77a.88.88,0,1,1,1.72-.36,38.94,38.94,0,0,1,.8,7.85c0,.47,0,.93,0,1.39A.88.88,0,0,1,75.63,40.49ZM.87,38.34h0A.87.87,0,0,1,0,37.45a37.81,37.81,0,0,1,1.31-9.18A.88.88,0,0,1,3,28.73a36.32,36.32,0,0,0-1.25,8.76A.88.88,0,0,1,.87,38.34ZM71.94,22.89a.86.86,0,0,1-.78-.5A37.16,37.16,0,0,0,66.37,15a.87.87,0,1,1,1.34-1.11,38.35,38.35,0,0,1,5,7.79.87.87,0,0,1-.41,1.17A.85.85,0,0,1,71.94,22.89ZM5.56,21a.81.81,0,0,1-.42-.12.85.85,0,0,1-.34-1.18,37.83,37.83,0,0,1,5.45-7.5.87.87,0,0,1,1.28,1.19,36.93,36.93,0,0,0-5.21,7.16A.87.87,0,0,1,5.56,21ZM60.46,9.05a.9.9,0,0,1-.52-.17,36.35,36.35,0,0,0-7.7-4.36.88.88,0,0,1-.47-1.14.87.87,0,0,1,1.14-.47A38.24,38.24,0,0,1,61,7.47a.87.87,0,0,1,.18,1.22A.89.89,0,0,1,60.46,9.05ZM17.82,7.82a.87.87,0,0,1-.48-1.6,38,38,0,0,1,8.31-4.1.88.88,0,0,1,1.12.54.87.87,0,0,1-.54,1.11,36.85,36.85,0,0,0-7.94,3.91A.81.81,0,0,1,17.82,7.82Zm26-5.66h-.13a37.36,37.36,0,0,0-8.84-.25A.87.87,0,0,1,34.72.16,39.31,39.31,0,0,1,44,.42a.87.87,0,0,1-.13,1.74Z"/><path class="cls-1" d="M13.16,66.85a.88.88,0,0,1-.59-.22,39.84,39.84,0,0,1-3.33-3.42.88.88,0,0,1,1.33-1.14,35,35,0,0,0,3.18,3.26.89.89,0,0,1,.06,1.24A.88.88,0,0,1,13.16,66.85Z"/><path class="cls-1" d="M42.73,56.53a.88.88,0,0,1-.81-.54l-1.39-3.43a13.29,13.29,0,0,1-5-.08L34,55.85a.88.88,0,0,1-1.15.44l-3.6-1.6a.9.9,0,0,1-.46-.48.91.91,0,0,1,0-.67l1.51-3.38A13.48,13.48,0,0,1,27,46.5l-3.48,1.25a.88.88,0,0,1-1.12-.53L21,43.51a.87.87,0,0,1,0-.67.89.89,0,0,1,.5-.45L25,41.14a13.06,13.06,0,0,1,.17-4.45l-3.38-1.5A.88.88,0,0,1,21.38,34L23,30.44a.88.88,0,0,1,.48-.47.91.91,0,0,1,.67,0l3.37,1.51a13.31,13.31,0,0,1,3.21-3.1L29.33,25a.86.86,0,0,1,0-.67.82.82,0,0,1,.48-.47l3.65-1.48a.88.88,0,0,1,1.14.48L36,26.26a13.51,13.51,0,0,1,5,.09L42.49,23a.87.87,0,0,1,1.15-.44l3.6,1.61a.87.87,0,0,1,.46.48.91.91,0,0,1,0,.67l-1.51,3.38a13.16,13.16,0,0,1,3.39,3.66L53,31.08a.88.88,0,0,1,1.12.53l1.33,3.7A.88.88,0,0,1,55,36.43l-3.48,1.25a13.58,13.58,0,0,1-.17,4.45l3.38,1.51a.87.87,0,0,1,.46.48.91.91,0,0,1,0,.67l-1.61,3.6a.88.88,0,0,1-1.16.44L49,47.33a13.23,13.23,0,0,1-3.2,3.09l1.39,3.43a.86.86,0,0,1,0,.67.88.88,0,0,1-.48.47l-3.65,1.48A1,1,0,0,1,42.73,56.53Zm-1.66-5.85a.88.88,0,0,1,.81.55l1.33,3.29,2-.83L43.91,50.4a.86.86,0,0,1,.35-1.07A11.5,11.5,0,0,0,48,45.75a.88.88,0,0,1,1.09-.32l3.24,1.45.9-2-3.25-1.45a.86.86,0,0,1-.48-1,11.6,11.6,0,0,0,.19-5.14.88.88,0,0,1,.56-1l3.34-1.2L52.81,33l-3.34,1.2a.87.87,0,0,1-1.06-.41,11.62,11.62,0,0,0-3.81-4.1.87.87,0,0,1-.32-1.09l1.44-3.24-2-.9-1.45,3.24a.86.86,0,0,1-1,.49,11.58,11.58,0,0,0-5.61-.09.88.88,0,0,1-1-.52l-1.33-3.29-2,.82,1.33,3.29a.87.87,0,0,1-.35,1.08,11.41,11.41,0,0,0-3.71,3.57.88.88,0,0,1-1.09.32L24.23,32l-.9,2,3.24,1.44a.89.89,0,0,1,.49,1,11.45,11.45,0,0,0-.19,5.14.86.86,0,0,1-.57,1L23,43.74l.74,2.07,3.35-1.2a.87.87,0,0,1,1.06.4,11.56,11.56,0,0,0,3.81,4.11.88.88,0,0,1,.32,1.09L30.8,53.45l2,.89,1.45-3.24a.87.87,0,0,1,1-.49,11.58,11.58,0,0,0,5.61.1A.64.64,0,0,1,41.07,50.68Zm-2.81-3.76a7.81,7.81,0,0,1-1.72-.19h0a7.52,7.52,0,0,1-5.59-9,7.51,7.51,0,1,1,7.31,9.22Zm0-13.27a5.76,5.76,0,0,0-4.89,8.8A5.65,5.65,0,0,0,36.94,45h0A5.76,5.76,0,1,0,39.57,33.8,5.92,5.92,0,0,0,38.26,33.65Z"/><path class="cls-2" d="M51.25,75h-26a.87.87,0,0,1-.88-.87V64.64a10.28,10.28,0,0,0-2.49-2.15,27.85,27.85,0,0,1-11.85-23,28.21,28.21,0,0,1,56.42,0c0,9.56-4.63,18.43-12.08,23.15A5,5,0,0,0,52.12,67v7.11A.87.87,0,0,1,51.25,75ZM26.14,73.27H50.37V67.11a6.76,6.76,0,0,1,3.08-5.94c6.95-4.4,11.27-12.71,11.27-21.67a26.46,26.46,0,0,0-52.92,0A26.08,26.08,0,0,0,22.9,61.05c2.52,1.74,3.07,2.76,3.18,3a.87.87,0,0,1,.06.32Z"/><path class="cls-2" d="M50.59,82.64H25.93a.87.87,0,1,1,0-1.74H50.59a.87.87,0,1,1,0,1.74Z"/><path class="cls-2" d="M46,90H30.49a.88.88,0,0,1,0-1.75H46A.88.88,0,1,1,46,90Z"/></svg>