<svg id="Layer_1" data-name="Layer 1" xmlns="http://www.w3.org/2000/svg" viewBox="0 0 75.52 91.92"><defs><style>.cls-1{fill:#575756;}.cls-2{fill:#ba9764;}</style></defs><path class="cls-1" d="M29.09,91.92a.76.76,0,0,1-.75-.66.66.66,0,0,1,0-.13V69.9L27,44.81,12.16,25.25a3.22,3.22,0,0,1,5-4.07L31,37.74h2.51s.67-.11.67-.46a.75.75,0,0,1,.75-.74h0a.75.75,0,0,1,.74.76c0,1.37-1.38,1.86-2.09,1.94H30.67a.71.71,0,0,1-.28-.06,1.12,1.12,0,0,1-.37-.24L16,22.14a1.72,1.72,0,0,0-2.66,2.18L28.27,44a.94.94,0,0,1,.12.22l.08.24a.69.69,0,0,1,0,.2l1.33,25.2V91.08s0,.06,0,.09A.76.76,0,0,1,29.09,91.92Z"/><path class="cls-1" d="M46.65,91.92h0a.76.76,0,0,1-.75-.75V69.9l1.41-25.3a.72.72,0,0,1,.13-.38l.12-.18L62.5,24.64a1.63,1.63,0,0,0-.28-2.37,1.67,1.67,0,0,0-2.35.17L46.68,38.9a.86.86,0,0,1-.2.18l-.09.05a.77.77,0,0,1-.39.11H42.25a2,2,0,0,1-1.3-.51,1.92,1.92,0,0,1-.56-1.44.74.74,0,0,1,.74-.75h0a.76.76,0,0,1,.75.75.55.55,0,0,0,.1.36.41.41,0,0,0,.23.09h3.47l13-16.25a3.17,3.17,0,0,1,4.47-.37,3.12,3.12,0,0,1,.51,4.44L48.81,44.89l-1.4,25V91.17A.75.75,0,0,1,46.65,91.92Z"/><path class="cls-1" d="M38.07,91.92a.75.75,0,0,1-.75-.75V67.45a.75.75,0,0,1,1.5,0V91.17A.76.76,0,0,1,38.07,91.92Z"/><path class="cls-1" d="M37.86,35.78c-3.75,0-6.81-3.42-6.81-7.63s3.06-7.62,6.81-7.62,6.82,3.42,6.82,7.62S41.62,35.78,37.86,35.78Zm0-13.75c-2.92,0-5.31,2.75-5.31,6.12s2.39,6.13,5.31,6.13,5.32-2.75,5.32-6.13S40.79,22,37.86,22Z"/><path class="cls-2" d="M25.57,73.47a.74.74,0,0,1-.25,0,37.76,37.76,0,1,1,25.47-.21.75.75,0,0,1-.52-1.41A36.25,36.25,0,1,0,25.82,72a.75.75,0,0,1,.46.95A.76.76,0,0,1,25.57,73.47Z"/><path class="cls-2" d="M74.77,38.51H57.53a.75.75,0,0,1,0-1.5H74.77a.75.75,0,0,1,0,1.5Z"/><path class="cls-2" d="M1,38.51A.75.75,0,0,1,1,37H18.69a.75.75,0,0,1,0,1.5Z"/><path class="cls-2" d="M38.14,18.92a.76.76,0,0,1-.75-.75v-17a.75.75,0,0,1,1.5,0v17A.75.75,0,0,1,38.14,18.92Z"/><path class="cls-2" d="M44.92,22.79a.75.75,0,0,1-.08-1.49,53.91,53.91,0,0,0,21.39-7,.75.75,0,0,1,1,.27.76.76,0,0,1-.27,1,55.53,55.53,0,0,1-22,7.22Z"/><path class="cls-2" d="M31.11,22.61H31A63.31,63.31,0,0,1,8.76,15.51a.75.75,0,0,1,.77-1.29A63,63,0,0,0,31.2,21.11a.74.74,0,0,1,.65.84A.75.75,0,0,1,31.11,22.61Z"/><path class="cls-2" d="M21.4,23a.44.44,0,0,1-.16,0,.74.74,0,0,1-.57-.89A72.79,72.79,0,0,1,28.16,2.18a.75.75,0,1,1,1.31.73,71.44,71.44,0,0,0-7.34,19.46A.74.74,0,0,1,21.4,23Z"/><path class="cls-2" d="M25.85,68.3a.75.75,0,0,1-.67-.42A72.08,72.08,0,0,1,18.08,38a.75.75,0,0,1,.74-.76h0a.75.75,0,0,1,.75.74,70.55,70.55,0,0,0,7,29.24.75.75,0,0,1-.35,1A.78.78,0,0,1,25.85,68.3Z"/><path class="cls-2" d="M54.89,23a.76.76,0,0,1-.74-.59A71.11,71.11,0,0,0,46.81,2.91a.75.75,0,0,1,1.32-.73,72.79,72.79,0,0,1,7.49,19.87.74.74,0,0,1-.58.89Z"/><path class="cls-2" d="M50.16,68.86a.8.8,0,0,1-.33-.08.75.75,0,0,1-.34-1,71.46,71.46,0,0,0,7.21-30,.76.76,0,0,1,.75-.75h0a.75.75,0,0,1,.74.76,73,73,0,0,1-7.36,30.68A.76.76,0,0,1,50.16,68.86Z"/><path class="cls-2" d="M9.15,61.4A.75.75,0,0,1,8.77,60a55.92,55.92,0,0,1,16.49-6.36.75.75,0,1,1,.31,1.46,54.74,54.74,0,0,0-16,6.2A.74.74,0,0,1,9.15,61.4Z"/><path class="cls-2" d="M66.69,61.33a.69.69,0,0,1-.37-.1,60.83,60.83,0,0,0-15.9-5.8A.75.75,0,1,1,50.75,54a60.91,60.91,0,0,1,16.32,6,.75.75,0,0,1-.38,1.39Z"/></svg>