<svg xmlns="http://www.w3.org/2000/svg" viewBox="0 0 265.25 200"><defs><style>.cls-1{isolation:isolate;}.cls-2{fill:#ba9764;mix-blend-mode:multiply;}</style></defs><g class="cls-1"><g id="Layer_1" data-name="Layer 1"><path class="cls-2" d="M264.15,68.56l1.1-1.1-1.1-1.11h0L197.86.06l-65.19,65.2,0-.05h0L67.39,0,1.1,66.29h0L0,67.39l1.1,1.1h0l66.29,66.29h0L132.62,200l65.19-65.19.05,0,66.29-66.29ZM101.8,100.44l30.82-30.82,30.83,30.83-30.83,92.42ZM66.71,5.09,87,65.86l-81,0Zm69.75,60.78L194.29,8,175,65.88ZM174,69l-9.39,28.15L136.4,69ZM90.26,65.86,71,8l57.89,57.89ZM128.79,69,100.68,97.09,91.3,69ZM88,69,98.21,99.56,67.39,130.38,6,69Zm79,30.64L177.24,69l82.05,0-61.43,61.43Zm11.26-33.73L198.54,5.15,259.28,65.9Zm-78.95,37L129.05,192,69.64,132.61ZM136.19,192l29.73-89.1,29.69,29.69Z"/></g></g></svg>