<svg id="Layer_1" data-name="Layer 1" xmlns="http://www.w3.org/2000/svg" viewBox="0 0 67.4 60"><defs><style>.cls-1{fill:#575756;}.cls-2{fill:#ba9764;}</style></defs><polygon class="cls-1" points="6.58 60 4.93 60 4.93 26.3 4.11 26.3 4.11 24.66 6.58 24.66 6.58 60"/><rect class="cls-1" x="12.33" y="40.27" width="1.64" height="19.73"/><path class="cls-1" d="M21.37,60H19.73V21.44L37,19.8V16.44H9.86c-4.76,0-8.22,3.8-8.22,9V40.27H3.29v1.65H0V25.48c0-6.09,4.24-10.69,9.86-10.69H38.63V21.3L21.37,22.94Z"/><path class="cls-1" d="M13.15,13.15c-3.44,0-5.75-2.64-5.75-6.57S9.71,0,13.15,0,18.9,2.64,18.9,6.58,16.59,13.15,13.15,13.15Zm0-11.51C10.12,1.64,9,4.3,9,6.58s1.08,4.93,4.11,4.93,4.11-2.66,4.11-4.93S16.18,1.64,13.15,1.64Z"/><rect class="cls-1" x="12.33" y="22.19" width="1.64" height="1.64"/><rect class="cls-1" x="12.33" y="27.12" width="1.64" height="1.64"/><rect class="cls-1" x="12.33" y="32.05" width="1.64" height="1.64"/><polygon class="cls-1" points="67.4 32.88 30.41 32.88 30.41 24.66 32.05 24.66 32.05 31.23 65.75 31.23 65.75 4.93 32.05 4.93 32.05 13.15 30.41 13.15 30.41 3.29 67.4 3.29 67.4 32.88"/><rect class="cls-2" x="35.34" y="7.4" width="22.19" height="1.64"/><rect class="cls-2" x="41.92" y="13.97" width="15.62" height="1.64"/><rect class="cls-2" x="41.92" y="20.55" width="15.62" height="1.64"/><rect class="cls-2" x="35.34" y="27.12" width="22.19" height="1.64"/><rect class="cls-2" x="61.64" y="7.4" width="1.64" height="1.64"/><rect class="cls-2" x="61.64" y="13.97" width="1.64" height="1.64"/><rect class="cls-2" x="61.64" y="20.55" width="1.64" height="1.64"/><rect class="cls-2" x="61.64" y="27.12" width="1.64" height="1.64"/></svg>