<svg id="Layer_1" data-name="Layer 1" xmlns="http://www.w3.org/2000/svg" viewBox="0 0 59.75 60"><defs><style>.cls-1{fill:#575756;}.cls-2{fill:#ba9764;}</style></defs><path class="cls-1" d="M13.53,13c-3.39,0-5.68-2.6-5.68-6.48S10.14,0,13.53,0s5.68,2.61,5.68,6.49S16.92,13,13.53,13Zm0-11.35c-3,0-4,2.62-4,4.87s1.06,4.86,4,4.86,4-2.62,4-4.86S16.52,1.62,13.53,1.62Z"/><rect class="cls-1" x="12.72" y="21.08" width="1.62" height="1.62"/><path class="cls-1" d="M14.34,32.43H12.72V29.19a2.43,2.43,0,0,1,2.43-2.43h5.68v1.62H15.15a.81.81,0,0,0-.81.81Z"/><path class="cls-1" d="M14.34,32.43H12.72V29.19a.81.81,0,0,0-.81-.81H6.23V26.76h5.68a2.43,2.43,0,0,1,2.43,2.43Z"/><path class="cls-1" d="M24,33.24H3A3.12,3.12,0,0,1,0,29.9l.56-6.46c.84-6.21,3.75-8.85,9.73-8.85h6.48c6,0,8.89,2.64,9.73,8.81l.56,6.43A3.14,3.14,0,0,1,24,33.24Zm-13.74-17c-5.19,0-7.39,2-8.12,7.4L1.62,30A1.51,1.51,0,0,0,3,31.62H24a1.53,1.53,0,0,0,1.41-1.72l-.56-6.32c-.72-5.36-2.92-7.36-8.11-7.36Z"/><path class="cls-1" d="M54.07,21.08H31.37a2.43,2.43,0,0,1-2.43-2.43V17.36l-4.63-4.62a.84.84,0,0,1-.18-.89.82.82,0,0,1,.75-.5h4.06v-.81a2.43,2.43,0,0,1,2.43-2.43h22.7a2.43,2.43,0,0,1,2.43,2.43v8.11A2.43,2.43,0,0,1,54.07,21.08ZM26.84,13l3.48,3.48a.84.84,0,0,1,.24.58v1.62a.81.81,0,0,0,.81.81h22.7a.81.81,0,0,0,.81-.81V10.54a.81.81,0,0,0-.81-.81H31.37a.81.81,0,0,0-.81.81v1.62a.81.81,0,0,1-.81.81Z"/><path class="cls-2" d="M28.13,51.08H5.42A2.43,2.43,0,0,1,3,48.65V40.54a2.43,2.43,0,0,1,2.43-2.43H28.13a2.43,2.43,0,0,1,2.43,2.43v.81h4.05a.81.81,0,0,1,.57,1.39l-4.62,4.62v1.29A2.43,2.43,0,0,1,28.13,51.08ZM5.42,39.73a.81.81,0,0,0-.81.81v8.11a.81.81,0,0,0,.81.81H28.13a.81.81,0,0,0,.81-.81V47a.83.83,0,0,1,.23-.58L32.65,43h-2.9a.81.81,0,0,1-.81-.81V40.54a.81.81,0,0,0-.81-.81Z"/><rect class="cls-1" x="37.04" y="13.78" width="1.62" height="1.62"/><rect class="cls-1" x="41.91" y="13.78" width="1.62" height="1.62"/><rect class="cls-1" x="46.77" y="13.78" width="1.62" height="1.62"/><path class="cls-2" d="M25.69,43.78H16.77a.81.81,0,0,1,0-1.62h8.92a.81.81,0,0,1,0,1.62Z"/><path class="cls-2" d="M11.91,43.78H7.85a.81.81,0,1,1,0-1.62h4.06a.81.81,0,0,1,0,1.62Z"/><path class="cls-2" d="M25.69,47H23.26a.81.81,0,0,1,0-1.62h2.43a.81.81,0,0,1,0,1.62Z"/><path class="cls-2" d="M18.4,47H7.85a.81.81,0,1,1,0-1.62H18.4a.81.81,0,1,1,0,1.62Z"/><path class="cls-2" d="M50,43H41.91a2.43,2.43,0,0,1-2.43-2.43V32.43A2.43,2.43,0,0,1,41.91,30H50a2.43,2.43,0,0,1,2.43,2.43v8.11A2.43,2.43,0,0,1,50,43ZM41.91,31.62a.81.81,0,0,0-.81.81v8.11a.81.81,0,0,0,.81.81H50a.81.81,0,0,0,.81-.81V32.43a.82.82,0,0,0-.81-.81Z"/><path class="cls-2" d="M40.29,38.11H38.1a1.87,1.87,0,0,1-1.87-1.87V34.86a2.43,2.43,0,0,1,2.44-2.43h1.62a.81.81,0,0,1,.81.81V37.3A.81.81,0,0,1,40.29,38.11Zm-1.62-4.06a.82.82,0,0,0-.82.81v1.38a.25.25,0,0,0,.25.25h1.38V34.05Z"/><path class="cls-2" d="M53.83,38.11H51.64a.81.81,0,0,1-.81-.81V33.24a.81.81,0,0,1,.81-.81h1.62a2.43,2.43,0,0,1,2.43,2.43v1.38A1.87,1.87,0,0,1,53.83,38.11Zm-1.38-1.62h1.38a.25.25,0,0,0,.24-.25V34.86a.81.81,0,0,0-.81-.81h-.81Z"/><path class="cls-2" d="M54.07,34.05a.81.81,0,0,1-.81-.81v-2a4.51,4.51,0,0,0-4.5-4.5H43.17a4.51,4.51,0,0,0-4.5,4.5v2a.82.82,0,0,1-1.63,0v-2a6.13,6.13,0,0,1,6.13-6.12h5.59a6.13,6.13,0,0,1,6.12,6.12v2A.81.81,0,0,1,54.07,34.05Z"/><path class="cls-2" d="M53.26,40.54H48.4a.81.81,0,1,1,0-1.62h4.86V37.3a.81.81,0,1,1,1.62,0v1.62A1.63,1.63,0,0,1,53.26,40.54Z"/><path class="cls-2" d="M48.4,35.68H43.53a.82.82,0,0,1,0-1.63H48.4a.82.82,0,0,1,0,1.63Z"/><path class="cls-2" d="M58.94,60H33a.81.81,0,0,1-.81-.81V54.11a9.53,9.53,0,0,1,9.51-9.52h8.54a9.53,9.53,0,0,1,9.52,9.52v5.08A.81.81,0,0,1,58.94,60ZM33.8,58.38H58.13V54.11a7.91,7.91,0,0,0-7.9-7.89H41.69a7.9,7.9,0,0,0-7.89,7.89Z"/></svg>