<svg id="Layer_1" data-name="Layer 1" xmlns="http://www.w3.org/2000/svg" viewBox="0 0 66 54"><defs><style>.cls-1{fill:#575756;}.cls-2{fill:#ba9764;}</style></defs><path class="cls-1" d="M33,54a1,1,0,0,1-.89-.55L25.38,40H6a6,6,0,0,1-6-6V6A6,6,0,0,1,6,0H60a6,6,0,0,1,6,6V34a6,6,0,0,1-6,6H40.62L33.89,53.45A1,1,0,0,1,33,54ZM6,2A4,4,0,0,0,2,6V34a4,4,0,0,0,4,4H26a1,1,0,0,1,.89.55L33,50.76l6.11-12.21A1,1,0,0,1,40,38H60a4,4,0,0,0,4-4V6a4,4,0,0,0-4-4Z"/><rect class="cls-2" x="19" y="8" width="40" height="2"/><rect class="cls-2" x="19" y="13" width="40" height="2"/><path class="cls-2" d="M15,15H8V8h7Zm-5-2h3V10H10Z"/><rect class="cls-2" x="19" y="24" width="40" height="2"/><rect class="cls-2" x="19" y="29" width="40" height="2"/><path class="cls-2" d="M15,31H8V24h7Zm-5-2h3V26H10Z"/></svg>