<svg id="Layer_1" data-name="Layer 1" xmlns="http://www.w3.org/2000/svg" viewBox="0 0 61.53 60"><defs><style>.cls-1{fill:#575756;}.cls-2{fill:#ba9764;}</style></defs><path class="cls-1" d="M14,26.73V20.82a.86.86,0,0,1,.41-.73l11.12-6.4.83,1.44L15.69,21.3v5.43Z"/><path class="cls-1" d="M45.68,26.53v-5.2L34.89,15.06l.84-1.44,11.2,6.51a.85.85,0,0,1,.41.72v5.68Z"/><path class="cls-1" d="M36.22,46.14l-.84-1.44,10.31-6V33.33h1.66v5.85a.86.86,0,0,1-.41.73Z"/><path class="cls-1" d="M25.2,46.17l-10.74-6.3a.85.85,0,0,1-.41-.72V33.39h1.67v5.28l10.33,6.06Z"/><path class="cls-1" d="M30.69,37.5a7.5,7.5,0,1,1,7.5-7.5A7.51,7.51,0,0,1,30.69,37.5Zm0-13.33A5.83,5.83,0,1,0,36.53,30,5.84,5.84,0,0,0,30.69,24.17Z"/><rect class="cls-1" x="44.57" y="28.22" width="1.67" height="20.54" transform="translate(-10.56 58.76) rotate(-60.2)"/><rect class="cls-1" x="15.06" y="11.3" width="1.67" height="20.41" transform="translate(-10.67 24.67) rotate(-60.33)"/><rect class="cls-1" x="5.76" y="37.67" width="20.38" height="1.67" transform="translate(-17.1 13.12) rotate(-29.97)"/><rect class="cls-1" x="35.13" y="20.65" width="20.82" height="1.67" transform="translate(-4.66 25.39) rotate(-29.71)"/><path class="cls-2" d="M57.36,18.33a4.17,4.17,0,1,1,4.17-4.16A4.17,4.17,0,0,1,57.36,18.33Zm0-6.66a2.5,2.5,0,1,0,2.5,2.5A2.5,2.5,0,0,0,57.36,11.67Z"/><path class="cls-2" d="M57.36,49.44a4.17,4.17,0,1,1,4.17-4.17A4.17,4.17,0,0,1,57.36,49.44Zm0-6.67a2.5,2.5,0,1,0,2.5,2.5A2.51,2.51,0,0,0,57.36,42.77Z"/><path class="cls-2" d="M4.17,49.44a4.17,4.17,0,1,1,4.16-4.17A4.17,4.17,0,0,1,4.17,49.44Zm0-6.67a2.5,2.5,0,1,0,2.5,2.5A2.51,2.51,0,0,0,4.17,42.77Z"/><path class="cls-2" d="M4.17,18.75a4.17,4.17,0,1,1,4.16-4.17A4.17,4.17,0,0,1,4.17,18.75Zm0-6.67a2.5,2.5,0,1,0,2.5,2.5A2.5,2.5,0,0,0,4.17,12.08Z"/><rect class="cls-1" x="29.86" y="52.86" width="1.67" height="7.14"/><rect class="cls-1" x="29.86" y="36.67" width="1.67" height="7.86"/><rect class="cls-1" x="29.86" y="15.47" width="1.67" height="7.86"/><rect class="cls-1" x="29.86" width="1.67" height="6.56"/><rect class="cls-1" x="51.39" y="29.17" width="9.31" height="1.67"/><rect class="cls-1" x="37.36" y="29.17" width="5.55" height="1.67"/><rect class="cls-1" x="18.12" y="29.17" width="5.91" height="1.67"/><rect class="cls-1" x="0.69" y="29.17" width="9.09" height="1.67"/><polygon class="cls-2" points="31.47 34.48 29.92 33.86 31.13 30.83 27.8 30.83 29.92 25.52 31.47 26.14 30.26 29.17 33.59 29.17 31.47 34.48"/><path class="cls-2" d="M30.65,16a4.17,4.17,0,1,1,4.17-4.16A4.17,4.17,0,0,1,30.65,16Zm0-6.66a2.5,2.5,0,1,0,2.5,2.5A2.5,2.5,0,0,0,30.65,9.34Z"/><path class="cls-2" d="M30.65,52a4.17,4.17,0,1,1,4.17-4.16A4.17,4.17,0,0,1,30.65,52Zm0-6.66a2.5,2.5,0,1,0,2.5,2.5A2.5,2.5,0,0,0,30.65,45.36Z"/><path class="cls-2" d="M14.79,34.23A4.17,4.17,0,1,1,19,30.06,4.17,4.17,0,0,1,14.79,34.23Zm0-6.67a2.5,2.5,0,1,0,2.5,2.5A2.5,2.5,0,0,0,14.79,27.56Z"/><path class="cls-2" d="M46.39,34.17A4.17,4.17,0,1,1,50.56,30,4.17,4.17,0,0,1,46.39,34.17Zm0-6.66a2.5,2.5,0,1,0,2.5,2.5A2.5,2.5,0,0,0,46.39,27.51Z"/></svg>