<svg id="Layer_1" data-name="Layer 1" xmlns="http://www.w3.org/2000/svg" viewBox="0 0 80.05 46"><defs><style>.cls-1{fill:#575756;}.cls-2{fill:#ba9764;}</style></defs><path class="cls-1" d="M73.22,46H12.87a6.83,6.83,0,0,1-6.82-6.82V37h74v2.18A6.83,6.83,0,0,1,73.22,46ZM8.05,39v.18A4.82,4.82,0,0,0,12.87,44H73.22a4.83,4.83,0,0,0,4.83-4.82V39Z"/><path class="cls-1" d="M72.05,39a1,1,0,0,1-1-1V3a1,1,0,0,0-1-1H16a1,1,0,0,0-1,1V20a1,1,0,0,1-2,0V3a3,3,0,0,1,3-3H70.05a3,3,0,0,1,3,3V38A1,1,0,0,1,72.05,39Z"/><path class="cls-1" d="M14,39a1,1,0,0,1-1-1V29.75a1,1,0,1,1,2,0V38A1,1,0,0,1,14,39Z"/><path class="cls-1" d="M68.05,35a1,1,0,0,1-1-1V6h-48V8a1,1,0,0,1-2,0V5a1,1,0,0,1,1-1h50a1,1,0,0,1,1,1V34A1,1,0,0,1,68.05,35Z"/><path class="cls-1" d="M18,35a1,1,0,0,1-1-1V25a1,1,0,0,1,2,0v9A1,1,0,0,1,18,35Z"/><path class="cls-2" d="M20.67,26a1,1,0,0,1-.11-2c1.53-.17,2.45-1.69,3.12-2.81a6.46,6.46,0,0,1,.78-1.12,3.27,3.27,0,0,1,4.5-.69l.19.11c.46-.21,1.93-1.71,4.27-6.77l.06-.14a1,1,0,0,1,1.81.86l-.06.12c-4.07,8.81-5.91,8.14-6.7,7.84a5.44,5.44,0,0,1-.54-.27c-.74-.41-1.18-.65-2.08.32a6.67,6.67,0,0,0-.52.77c-.78,1.31-2.1,3.49-4.61,3.76Z"/><path class="cls-2" d="M62.65,29a1.15,1.15,0,0,1-.26,0,7.7,7.7,0,0,1-1.13-.41,4.71,4.71,0,0,1-1.73-2c-.54-.9-1.09-1.82-1.84-1.95S56,25,54.79,26a2.45,2.45,0,0,1-2.1.39A3.69,3.69,0,0,1,50,24c-.39-1.12-1.36-2.51-1.77-2.57-.12,0-.58.19-1.45,1.86-.24.42-1.42,2.34-3.09,2.48a2.5,2.5,0,0,1-2.21-1.07c-.84-.88-2-3.19-3.31-6.12-.39-.84-.73-1.57-1-2a3.64,3.64,0,0,0-.8-.94,1,1,0,0,1-.12-1.41,1,1,0,0,1,1.41-.12A5.44,5.44,0,0,1,39,15.64c.23.44.58,1.2,1,2.08a33.56,33.56,0,0,0,3,5.64c.24.29.4.42.55.39.42,0,1.11-.77,1.49-1.44.74-1.41,1.71-2.9,3.25-2.9,2.2.07,3.59,3.82,3.6,3.86a2,2,0,0,0,1,1.1,1.08,1.08,0,0,0,.65.07c1.73-1.44,3.18-2,4.48-1.8,1.66.28,2.53,1.73,3.23,2.9a4.43,4.43,0,0,0,.89,1.23,5.29,5.29,0,0,0,.76.26,1,1,0,0,1,.71,1.22A1,1,0,0,1,62.65,29Zm-9.14-4.54s0,0,0,.05Z"/><path class="cls-2" d="M28.14,30.26A11,11,0,0,1,17.7,15.74,10.91,10.91,0,0,1,23.24,9.4h0a11,11,0,1,1,4.9,20.86Zm-4-19.07a9,9,0,0,0-4.07,12.06,9,9,0,0,0,16.13-8,9,9,0,0,0-12.06-4.08Z"/><path class="cls-2" d="M13.13,28a1,1,0,0,1-.45-1.89l6.12-3a1,1,0,1,1,.88,1.79l-6.11,3A1,1,0,0,1,13.13,28Z"/><path class="cls-2" d="M4,35.49a4.1,4.1,0,0,1-1.29-.21,4,4,0,0,1-.49-7.37l9-4.44a1,1,0,0,1,1.34.46l2.66,5.37a1,1,0,0,1,.05.77.94.94,0,0,1-.5.57l-9,4.44A4.1,4.1,0,0,1,4,35.49Zm7.17-9.78-8.06,4a2,2,0,0,0-1,1.15,2,2,0,0,0,.1,1.53h0a2,2,0,0,0,1.15,1,2,2,0,0,0,1.53-.1l8.07-4Z"/></svg>